<svg width="51" height="32" viewBox="0 0 51 32" fill="none" xmlns="http://www.w3.org/2000/svg">
<g clip-path="url(#clip0_1_61)">
<path d="M25.5001 6.48755L42.8639 23.7715L40.432 27.4994L31.823 24.6914L30.3152 24.2072L29.002 25.1271L25.5001 27.4994L21.9981 25.1271L20.6849 24.2072L19.1771 24.6914L10.6168 27.4994L8.18489 23.7231L25.5001 6.48755ZM25.5001 1.88818L3.95337 23.3358L9.20629 31.421L20.1499 27.8383L25.4514 31.421L30.8016 27.8383L41.7452 31.421L46.9981 23.3358L25.5001 1.88818Z" fill="#0E0E2C"/>
<path d="M0.5 18.0102L2.29961 20.8182L23.5545 0H11.5895V3.24377H15.5778L0.5 18.0102Z" fill="#0E0E2C"/>
<path d="M50.5 17.9618L35.4222 3.24377H39.4105V0H27.4456L48.7004 20.7698L50.5 17.9618Z" fill="#0E0E2C"/>
</g>
<defs>
<clipPath id="clip0_1_61">
<rect width="50" height="31.3725" fill="white" transform="translate(0.5)"/>
</clipPath>
</defs>
</svg>
