<svg width="1439" height="492" viewBox="0 0 1439 492" fill="none" xmlns="http://www.w3.org/2000/svg">
<g opacity="0.5">
<mask id="mask0_1_91" style="mask-type:alpha" maskUnits="userSpaceOnUse" x="0" y="0" width="1439" height="493">
<rect width="1439" height="493" fill="#CAEAFE"/>
</mask>
<g mask="url(#mask0_1_91)">
<path d="M-119.319 157.369C-138.382 274.394 -6.42668 398.565 48.679 492.066C83.2318 550.727 82.3382 592.713 90.0828 658.819C94.5508 696.04 104.38 732.071 129.401 760.061C189.869 827.358 302.165 810.683 381.696 796.092C486.844 776.737 591.396 739.813 694.16 707.653C764.457 685.618 838.627 660.605 913.094 654.054C990.242 647.205 1044.16 678.174 1100.45 726.711C1156.45 774.95 1226.15 856.54 1311.05 836.589C1415 812.47 1514.49 686.214 1558.28 599.562C1617.85 481.942 1558.28 407.2 1445.98 355.984C1331.3 302.98 1219.3 249.976 1120.71 166.302C1072.16 124.912 1025.39 82.0324 967.902 63.2727C920.54 47.4907 863.35 43.3219 811.521 31.7088C773.691 23.3711 733.479 6.39806 696.841 13.8424C668.246 19.5001 641.735 25.4555 611.949 25.1578C555.353 24.5622 495.184 19.7978 437.1 18.6068C320.037 16.2246 198.507 15.3313 84.1254 35.282C13.5305 47.4907 -105.021 69.8237 -119.319 157.369Z" stroke="#CAEAFE" stroke-miterlimit="10"/>
<path d="M648.288 56.7213C597.353 55.5302 545.822 53.7435 495.184 53.7435C391.824 53.4458 284.889 55.8279 185.698 75.481C118.678 88.583 19.1899 112.405 -4.04388 191.017C-31.1499 283.029 55.5299 392.014 96.6357 467.946C120.763 512.314 138.337 552.811 144.593 602.837C149.061 640.654 150.252 678.173 171.401 710.631C176.465 718.671 183.018 725.817 190.464 731.773C255.102 783.883 359.952 753.212 429.951 732.964C489.524 715.693 549.396 692.764 607.778 669.538C649.182 652.863 690.884 635.294 732.287 619.214C796.925 594.499 874.966 559.958 945.859 556.384C1013.18 552.811 1065.6 604.623 1108.5 648.396C1159.43 700.209 1224.37 783.883 1305.68 774.056C1398.02 762.741 1487.68 661.796 1525.81 583.184C1577.64 476.283 1514.49 404.52 1418.58 353.005C1314.62 297.024 1209.17 242.532 1113.86 168.982C1069.47 134.738 1024.2 95.134 970.284 81.1386C899.987 62.9745 798.712 38.2593 726.032 48.0858C698.628 51.6591 689.692 57.9124 648.288 56.7213Z" stroke="#CAEAFE" stroke-miterlimit="10"/>
<path d="M680.16 81.7341C636.672 81.7341 592.587 81.7341 549.396 82.9252C460.333 85.3074 368.59 90.3695 283.697 109.725C223.23 123.72 135.359 149.031 109.742 217.519C79.6574 297.917 135.359 390.525 166.635 462.288C184.209 502.785 197.315 540.305 203.571 584.077C208.337 617.428 210.124 652.267 232.762 678.769C238.123 685.022 244.379 690.382 251.23 694.551C316.463 732.964 412.972 694.551 476.418 671.325C533.311 650.481 590.204 624.277 645.906 598.37C685.224 579.908 724.841 560.851 764.457 544.176C821.052 520.056 906.243 475.688 970.285 478.368C1029.26 480.75 1077.52 540.305 1113.56 579.611C1161.22 631.721 1220.2 710.333 1298.24 710.333C1379.56 710.333 1453.13 628.445 1487.98 561.149C1537.43 465.861 1461.77 393.205 1387.6 346.752C1294.37 288.686 1195.77 234.789 1104.92 170.47C1060.54 138.907 1017.05 106.449 967.306 94.5383C903.562 79.0541 818.074 68.0365 749.564 75.1831C724.841 76.9697 715.905 81.7341 680.16 81.7341Z" stroke="#CAEAFE" stroke-miterlimit="10"/>
<path d="M706.969 100.494C670.629 101.983 633.991 103.174 598.247 105.556C523.482 110.32 446.036 118.062 375.441 136.822C319.739 151.711 247.357 177.617 219.06 235.683C186.294 302.979 218.464 381.592 239.315 447.399C256.591 501.892 254.506 598.668 295.016 637.676C300.08 642.738 306.038 646.907 312.889 649.885C376.037 677.28 464.802 635.592 521.992 611.174C575.609 588.544 628.927 561.149 681.352 534.349C718.288 515.589 755.223 496.532 792.755 479.857C846.073 456.035 925.902 412.858 985.774 419.706C1040.28 425.662 1081.39 479.261 1116.24 517.972C1161.81 568.593 1215.73 637.974 1288.11 645.418C1356.02 652.267 1419.17 589.437 1445.98 531.967C1485 448.59 1413.81 378.316 1353.05 335.139C1270.83 276.775 1179.09 224.665 1093.9 168.684C1052.79 141.587 1009.31 109.427 960.455 101.387C900.285 91.2629 829.393 85.903 767.436 93.3473C745.394 96.325 737.053 99.3028 706.969 100.494Z" stroke="#CAEAFE" stroke-miterlimit="10"/>
<path d="M728.117 113.894C698.628 116.276 669.139 118.659 639.948 121.934C578.289 129.081 514.843 138.312 457.652 156.476C405.823 172.853 350.717 197.568 320.037 245.808C286.378 298.811 300.675 366.406 311.994 425.663C321.824 476.582 317.654 556.683 357.27 591.224C362.036 595.393 367.696 598.669 373.951 600.753C433.525 621.002 513.056 579.313 565.779 555.194C615.523 532.265 664.969 505.466 713.819 479.857C747.776 461.991 782.329 444.125 816.584 428.343C864.541 406.605 943.476 364.321 997.986 373.85C1045.64 382.188 1084.67 432.809 1115.94 466.457C1158.54 512.91 1209.47 570.38 1274.41 584.078C1329.22 595.691 1382.24 547.452 1401 500.404C1429.3 428.938 1365.26 361.344 1315.81 322.038C1244.62 265.163 1160.03 216.03 1081.39 167.196C1041.18 142.183 998.284 113.299 951.221 106.152C898.2 98.1123 835.052 98.1123 781.138 105.854C760.585 109.428 752.84 112.108 728.117 113.894Z" stroke="#CAEAFE" stroke-miterlimit="10"/>
<path d="M744.203 123.125C722.458 126.102 698.927 129.08 674.501 133.249C625.055 141.884 574.418 152.306 529.142 168.982C485.355 185.359 441.27 208.288 411.186 248.189C368.59 304.766 362.633 494.448 419.228 540.305C423.398 543.878 428.76 546.558 434.419 548.344C488.631 565.02 560.716 525.118 606.885 503.083C652.161 481.643 697.437 456.63 742.118 433.106C772.798 417.027 804.372 400.649 835.648 386.951C879.733 367.894 955.391 327.695 1006.62 336.926C1043.86 343.774 1086.16 398.267 1110.88 422.982C1151.98 464.372 1201.13 518.269 1254.15 526.309C1294.66 532.562 1337.26 514.994 1351.26 466.159C1368.83 404.222 1315.81 343.477 1274.41 307.446C1213.05 254.145 1137.09 208.585 1066.2 166.599C1026.88 143.075 985.178 117.169 939.604 110.32C892.839 103.174 837.138 106.152 789.777 114.787C772.5 117.765 764.16 120.445 744.203 123.125Z" stroke="#CAEAFE" stroke-miterlimit="10"/>
<path d="M756.415 128.783C737.649 132.951 721.266 135.631 702.501 140.098C664.076 149.031 625.949 160.049 589.906 175.235C552.971 190.719 517.524 213.052 491.908 243.723C448.121 296.131 428.76 442.933 480.887 487.004C484.461 489.981 489.525 492.661 494.291 494.15C542.247 506.954 601.523 475.39 645.906 455.142C686.714 436.382 726.926 414.645 767.436 394.098C795.436 379.805 824.329 365.512 853.52 354.197C894.03 338.415 962.242 303.278 1008.11 315.189C1042.07 324.122 1078.41 364.917 1102.84 387.547C1139.47 421.196 1184.45 466.159 1229.13 473.604C1255.64 478.07 1294.66 469.733 1300.03 430.724C1306.58 381.89 1264.58 323.228 1231.81 291.962C1180.88 243.127 1113.26 202.333 1051.01 166.6C1012.88 144.565 972.37 120.743 928.881 113.596C886.584 106.747 837.733 111.81 796.032 119.552C781.436 122.232 773.989 124.912 756.415 128.783Z" stroke="#CAEAFE" stroke-miterlimit="10"/>
<path d="M767.436 132.058C752.84 135.93 738.543 140.098 724.543 144.267C696.245 152.605 665.863 163.027 640.246 176.724C611.949 191.613 583.651 209.182 562.205 234.195C524.971 277.967 492.801 391.419 541.652 434C544.928 436.68 549.098 439.36 553.268 440.551C592.289 453.058 645.31 428.64 682.543 411.965C718.288 395.885 754.032 378.615 789.478 361.641C815.393 349.433 842.201 337.522 868.711 328.291C908.626 314.296 963.136 289.878 1005.14 301.491C1036.11 310.127 1066.2 338.713 1090.33 358.366C1123.09 384.868 1156.75 411.667 1197.86 425.365C1230.32 436.382 1245.81 418.814 1246.11 394.694C1246.71 348.837 1216.32 307.149 1186.84 276.478C1145.73 233.599 1087.94 198.164 1034.62 168.089C997.986 147.245 960.157 126.103 918.158 118.063C881.818 110.917 840.712 116.574 804.67 123.125C787.691 125.805 781.436 128.187 767.436 132.058Z" stroke="#CAEAFE" stroke-miterlimit="10"/>
<path d="M777.563 135.333C766.542 138.907 754.925 142.778 743.011 147.244C719.777 155.88 701.607 163.92 681.65 175.533C659.31 188.337 638.757 203.821 622.97 221.985C591.396 258.016 559.821 343.775 601.523 382.485C604.204 385.165 607.48 387.547 610.757 389.036C642.331 402.138 684.926 385.463 716.203 373.254C746.883 361.343 777.563 347.943 807.946 335.437C829.691 326.504 856.797 315.784 880.626 308.935C964.625 283.922 1003.35 284.518 1074.24 335.139C1101.05 354.197 1129.64 372.361 1161.22 382.485C1185.64 390.227 1193.98 378.019 1191.6 359.557C1187.13 324.419 1166.28 287.793 1141.56 261.887C1106.71 225.559 1061.73 197.27 1018.84 171.662C985.178 151.413 948.54 133.249 910.115 124.316C878.839 116.872 843.988 120.743 813.01 126.996C799.606 129.08 788.585 131.76 777.563 135.333Z" stroke="#CAEAFE" stroke-miterlimit="10"/>
<path d="M793.053 140.693C782.33 143.373 772.5 146.649 763.862 150.222C747.181 157.071 730.798 165.408 717.096 174.342C701.905 184.466 687.905 196.675 676.288 210.074C647.693 243.127 633.395 301.491 659.608 335.139C661.395 337.521 663.778 339.606 666.459 341.392C684.331 353.005 715.309 347.943 747.181 338.712C773.989 330.97 800.798 321.144 827.01 312.21C849.052 304.766 870.201 297.917 889.86 293.451C955.391 278.264 995.008 281.242 1054.28 315.486C1086.16 333.948 1098.96 338.712 1119.22 344.072C1135.9 348.539 1139.77 339.606 1136.2 325.908C1129.64 299.704 1114.16 269.629 1095.69 249.38C1069.47 220.794 1036.41 197.866 1003.65 178.213C971.178 159.155 941.391 145.458 905.051 133.844C880.03 125.805 846.669 127.889 821.648 133.547C811.521 135.631 804.372 137.715 793.053 140.693Z" stroke="#CAEAFE" stroke-miterlimit="10"/>
<path d="M811.223 150.817C804.074 152.604 796.925 154.986 790.074 157.368C776.67 162.431 765.351 168.684 754.925 175.83C743.309 183.87 733.181 193.399 726.33 202.63C706.671 229.132 700.713 266.651 716.798 294.344C717.99 296.131 719.181 298.215 720.968 299.704C731.99 310.722 753.734 311.019 776.074 307.744C796.031 304.766 822.244 297.024 846.967 290.771C864.839 286.304 882.115 282.433 897.604 280.051C947.646 272.607 985.774 277.371 1031.94 297.917C1058.75 309.828 1060.54 307.446 1074.54 308.935C1084.37 309.828 1085.86 304.171 1082.58 294.046C1079.01 283.029 1067.69 257.718 1052.5 238.958C1036.11 219.007 1012.88 201.141 991.433 187.444C964.923 170.47 936.327 154.688 905.051 146.649C883.307 141.289 856.796 139.204 834.456 144.266C825.818 146.649 819.563 148.733 811.223 150.817Z" stroke="#CAEAFE" stroke-miterlimit="10"/>
<path d="M774.585 261.292C776.074 272.608 791.265 278.265 808.84 277.967C826.414 277.67 846.073 273.799 864.541 271.714C903.264 267.545 936.327 264.568 974.752 272.905C985.178 275.287 1000.07 284.518 1010.2 283.327C1019.73 282.434 1023.31 284.221 1026.58 277.967C1035.22 260.697 1003.35 220.795 981.008 202.929C940.498 170.769 883.903 154.392 833.861 168.387C791.265 180.596 769.521 219.604 774.585 261.292Z" stroke="#CAEAFE" stroke-miterlimit="10"/>
</g>
</g>
</svg>
