<svg width="690" height="661" viewBox="0 0 690 661" fill="none" xmlns="http://www.w3.org/2000/svg">
<g clip-path="url(#clip0_1_142)">
<path d="M590.9 95.3C546.3 48 489.6 15.1 426.6 0L425.4 4.9C487.5 19.7 543.4 52.2 587.4 98.9H564.2V103.9H595.9V72.2H590.9V95.3Z" fill="#D5D8DB"/>
<path d="M687.1 409.7L667 420.9C676.6 389.4 681.5 356.7 681.5 323.4C681.5 302.2 679.5 281 675.5 260.4L670.6 261.3C674.5 281.6 676.5 302.5 676.5 323.3C676.5 356.1 671.6 388.5 662.1 419.6L650.7 399.3L646.3 401.7L661.8 429.4L689.5 413.9L687.1 409.7Z" fill="#D5D8DB"/>
<path d="M174 581.9L173.5 576.9L141.9 579.8L144.8 611.4L149.8 610.9L147.7 588C184.7 616.2 226.3 636 271.4 646.8L272.6 641.9C228.1 631.3 187.1 611.8 150.7 584L174 581.9Z" fill="#D5D8DB"/>
<path d="M0 272.6L2.8 276.7L21.8 263.8C18.3 283.3 16.5 303.3 16.5 323.3C16.5 358.1 21.8 392.3 32.4 425.1L37.2 423.6C26.8 391.3 21.6 357.6 21.6 323.4C21.6 303.6 23.4 283.8 26.9 264.5L40 283.8L44.1 281L26.3 254.8L0 272.6Z" fill="#D5D8DB"/>
<path d="M549.4 582.4C513.3 610.4 472.7 630.1 428.7 641.1L438.1 620.5L433.6 618.4L420.4 647.2L449.2 660.4L451.3 655.9L429.7 646C474.5 634.8 515.8 614.8 552.5 586.4L549.4 582.4Z" fill="#D5D8DB"/>
</g>
<defs>
<clipPath id="clip0_1_142">
<rect width="689.5" height="660.5" fill="white"/>
</clipPath>
</defs>
</svg>
