<svg width="188" height="140" viewBox="0 0 188 140" fill="none" xmlns="http://www.w3.org/2000/svg">
<path d="M129.417 58.3208V22.9041C129.417 20.694 128.539 18.5744 126.976 17.0116C125.413 15.4488 123.293 14.5708 121.083 14.5708H105.729C105.225 12.5803 104.454 10.6671 103.438 8.88328C101.449 5.34413 98.5779 2.37996 95.1042 0.279114C94.7875 0.096263 94.4282 0 94.0625 0C93.6968 0 93.3375 0.096263 93.0208 0.279114C87.7019 3.44421 83.8464 8.57986 82.2917 14.5708H66.9167C64.7065 14.5708 62.5869 15.4488 61.0241 17.0116C59.4613 18.5744 58.5833 20.694 58.5833 22.9041V58.3208C58.0308 58.3208 57.5009 58.5403 57.1102 58.931C56.7195 59.3217 56.5 59.8516 56.5 60.4041V66.6541C56.5 68.8643 57.378 70.9839 58.9408 72.5467C60.5036 74.1095 62.6232 74.9874 64.8333 74.9874H123.167C125.377 74.9874 127.496 74.1095 129.059 72.5467C130.622 70.9839 131.5 68.8643 131.5 66.6541V60.4041C131.5 59.8516 131.281 59.3217 130.89 58.931C130.499 58.5403 129.969 58.3208 129.417 58.3208ZM106.5 39.5708V31.5083C108.288 31.9699 109.872 33.0121 111.003 34.4714C112.134 35.9307 112.749 37.7244 112.75 39.5708V42.7374L106.5 40.2374V39.5708ZM94 4.54995C96.3982 6.21268 98.386 8.39999 99.8125 10.9458C100.896 12.8302 101.643 14.8887 102.021 17.0291C102.227 18.1634 102.332 19.3138 102.333 20.4666V39.5708C102.333 40.1233 102.114 40.6532 101.723 41.0439C101.332 41.4346 100.803 41.6541 100.25 41.6541H87.75C87.1975 41.6541 86.6676 41.4346 86.2769 41.0439C85.8862 40.6532 85.6667 40.1233 85.6667 39.5708V20.4666C85.6726 17.3388 86.4332 14.2587 87.884 11.4877C89.3348 8.71672 91.4328 6.33677 94 4.54995ZM96.875 45.8208L95.8333 47.9041H92.1667L91.125 45.8208H96.875ZM81.5 39.5708V40.2374L75.25 42.7374V39.5708C75.2514 37.7244 75.8659 35.9307 76.9972 34.4714C78.1284 33.0121 79.7122 31.9699 81.5 31.5083V39.5708ZM62.75 22.9041C62.75 21.799 63.189 20.7392 63.9704 19.9578C64.7518 19.1764 65.8116 18.7374 66.9167 18.7374H81.5C81.5 19.3208 81.5 19.9041 81.5 20.4666V27.2583C78.5895 27.7502 75.9469 29.2564 74.0404 31.5099C72.1338 33.7634 71.0863 36.619 71.0833 39.5708V45.8208C71.0833 46.3733 71.3028 46.9032 71.6935 47.2939C72.0842 47.6846 72.6141 47.9041 73.1667 47.9041C73.4308 47.908 73.693 47.8584 73.9375 47.7583L83.3333 43.9874C84.1647 44.8254 85.2213 45.4043 86.375 45.6541L89.0208 50.9249C89.194 51.2685 89.4588 51.5574 89.7861 51.7597C90.1134 51.9619 90.4903 52.0696 90.875 52.0708H97.125C97.5097 52.0696 97.8866 51.9619 98.2139 51.7597C98.5412 51.5574 98.806 51.2685 98.9792 50.9249L101.625 45.6541C102.779 45.4043 103.835 44.8254 104.667 43.9874L114.062 47.7583C114.307 47.8584 114.569 47.908 114.833 47.9041C115.386 47.9041 115.916 47.6846 116.306 47.2939C116.697 46.9032 116.917 46.3733 116.917 45.8208V39.5708C116.914 36.619 115.866 33.7634 113.96 31.5099C112.053 29.2564 109.411 27.7502 106.5 27.2583V20.4666C106.5 19.9041 106.5 19.3208 106.5 18.7374H121.083C122.188 18.7374 123.248 19.1764 124.03 19.9578C124.811 20.7392 125.25 21.799 125.25 22.9041V58.3208H62.75V22.9041ZM104.687 62.4874L103.292 64.5708H84.7083L83.3125 62.4874H104.687ZM127.333 66.6541C127.333 67.7592 126.894 68.819 126.113 69.6004C125.332 70.3818 124.272 70.8208 123.167 70.8208H64.8333C63.7283 70.8208 62.6685 70.3818 61.8871 69.6004C61.1057 68.819 60.6667 67.7592 60.6667 66.6541V62.4874H78.2917L81.8542 67.7999C82.0429 68.0865 82.2995 68.3221 82.6011 68.4856C82.9028 68.6492 83.2402 68.7357 83.5833 68.7374H104.417C104.76 68.7357 105.097 68.6492 105.399 68.4856C105.701 68.3221 105.957 68.0865 106.146 67.7999L109.708 62.4874H127.333V66.6541Z" fill="#0E0E2C"/>
<path d="M94 35.4044C95.2361 35.4044 96.4445 35.0379 97.4723 34.3511C98.5001 33.6643 99.3012 32.6882 99.7742 31.5462C100.247 30.4042 100.371 29.1475 100.13 27.9351C99.8888 26.7227 99.2935 25.6091 98.4194 24.735C97.5453 23.8609 96.4317 23.2657 95.2193 23.0245C94.0069 22.7834 92.7503 22.9071 91.6082 23.3802C90.4662 23.8532 89.4901 24.6543 88.8033 25.6821C88.1166 26.7099 87.75 27.9183 87.75 29.1544C87.75 30.812 88.4085 32.4017 89.5806 33.5738C90.7527 34.7459 92.3424 35.4044 94 35.4044ZM94 27.0711C94.412 27.0711 94.8148 27.1933 95.1574 27.4222C95.5 27.6511 95.7671 27.9765 95.9247 28.3572C96.0824 28.7378 96.1237 29.1567 96.0433 29.5609C95.9629 29.965 95.7645 30.3362 95.4731 30.6276C95.1818 30.9189 94.8106 31.1173 94.4064 31.1977C94.0023 31.2781 93.5834 31.2369 93.2027 31.0792C92.8221 30.9215 92.4967 30.6545 92.2678 30.3119C92.0388 29.9693 91.9167 29.5665 91.9167 29.1544C91.9167 28.6019 92.1362 28.072 92.5269 27.6813C92.9176 27.2906 93.4475 27.0711 94 27.0711Z" fill="#0E0E2C"/>
<path d="M102.333 56.2378C103.484 56.2378 104.417 55.3051 104.417 54.1545C104.417 53.0039 103.484 52.0712 102.333 52.0712C101.183 52.0712 100.25 53.0039 100.25 54.1545C100.25 55.3051 101.183 56.2378 102.333 56.2378Z" fill="#0E0E2C"/>
<path d="M110.667 56.2378C111.817 56.2378 112.75 55.3051 112.75 54.1545C112.75 53.0039 111.817 52.0712 110.667 52.0712C109.516 52.0712 108.583 53.0039 108.583 54.1545C108.583 55.3051 109.516 56.2378 110.667 56.2378Z" fill="#0E0E2C"/>
<path d="M119 56.2378C120.15 56.2378 121.083 55.3051 121.083 54.1545C121.083 53.0039 120.15 52.0712 119 52.0712C117.849 52.0712 116.917 53.0039 116.917 54.1545C116.917 55.3051 117.849 56.2378 119 56.2378Z" fill="#0E0E2C"/>
<path d="M54.544 110.627V97.1874H50.92V113.987H61V110.627H54.544ZM73.5447 101.027L73.1847 102.251C72.0567 101.267 70.5927 100.667 68.9127 100.667C65.0247 100.667 62.1207 103.595 62.1207 107.507C62.1207 111.419 65.0247 114.371 68.9127 114.371C70.5687 114.371 72.0087 113.795 73.1127 112.811L73.4247 113.987H76.1607V101.027H73.5447ZM69.2007 111.059C67.1607 111.059 65.6727 109.523 65.6727 107.507C65.6727 105.467 67.1607 103.955 69.2007 103.955C71.2407 103.955 72.7287 105.467 72.7287 107.507C72.7287 109.547 71.2407 111.059 69.2007 111.059ZM85.459 114.371C89.131 114.371 91.555 112.019 91.555 108.515V101.027H88.051V108.131C88.051 109.955 87.091 111.059 85.459 111.059C83.851 111.059 82.867 109.979 82.867 108.131V101.027H79.363V108.515C79.363 112.019 81.811 114.371 85.459 114.371ZM102.111 100.739C100.359 100.739 98.7985 101.483 97.8145 102.635L97.1425 101.027H94.7425V113.987H98.2465V107.195C98.2465 105.107 99.3505 103.811 101.151 103.811C102.663 103.811 103.407 104.747 103.407 106.715V113.987H106.911V106.139C106.911 102.851 105.062 100.739 102.111 100.739ZM116.142 114.371C119.526 114.371 122.19 112.163 122.79 108.899H119.262C118.662 110.291 117.558 111.059 116.142 111.059C114.27 111.059 112.806 109.499 112.806 107.507C112.806 105.491 114.246 103.955 116.142 103.955C117.534 103.955 118.71 104.723 119.262 105.995H122.742C122.118 102.803 119.526 100.667 116.166 100.667C112.23 100.667 109.254 103.595 109.254 107.483C109.254 111.371 112.23 114.371 116.142 114.371ZM132.534 100.739C130.974 100.739 129.605 101.315 128.622 102.251V96.3714H125.118V113.987H128.622V107.195C128.622 105.083 129.773 103.811 131.526 103.811C133.086 103.811 133.782 104.771 133.782 106.715V113.987H137.286V106.115C137.286 102.827 135.462 100.739 132.534 100.739Z" fill="#0E0E2C"/>
<path d="M1.6 137.987H2.896V132.979H7.648V131.811H2.896V127.971H7.984V126.787H1.6V137.987ZM11.9333 128.163C12.4773 128.163 12.8613 127.763 12.8613 127.235C12.8613 126.723 12.4773 126.323 11.9333 126.323C11.4053 126.323 11.0213 126.723 11.0213 127.235C11.0213 127.763 11.4053 128.163 11.9333 128.163ZM11.3093 137.987H12.5733V129.667H9.74125V130.739H11.3093V137.987ZM15.7369 137.987H17.0009V133.027C17.0009 131.651 18.0249 130.643 19.3369 130.643C20.5049 130.643 21.4809 131.507 21.4809 132.835V137.987H22.7449V132.755C22.7449 130.915 21.5769 129.459 19.6409 129.459C18.3449 129.459 17.4489 130.131 17.0969 130.883H17.0009V129.667H15.7369V137.987ZM28.8953 138.195C30.7033 138.195 31.4713 137.011 31.6793 136.675H31.7753V136.755C31.7913 137.475 32.3033 137.987 32.9913 137.987H33.8073V136.867H33.4233C33.1673 136.867 33.0073 136.739 33.0073 136.483V129.667H31.7273V131.011H31.6313C31.3913 130.579 30.5273 129.459 28.7993 129.459C26.4313 129.459 24.8313 131.283 24.8313 133.843C24.8313 136.387 26.5113 138.195 28.8953 138.195ZM28.9593 137.059C27.3593 137.059 26.1273 135.795 26.1273 133.859C26.1273 131.955 27.3113 130.611 28.9433 130.611C30.4953 130.611 31.7753 131.795 31.7753 133.859C31.7753 135.603 30.7033 137.059 28.9593 137.059ZM35.8056 137.987H40.4296V136.899H38.7496V125.987H35.8056V127.075H37.4856V136.899H35.8056V137.987ZM46.7488 137.987H50.8128C54.3648 137.987 56.4288 135.859 56.4288 132.387C56.4288 129.123 54.3648 126.787 50.8128 126.787H46.7488V127.891H47.8048V136.883H46.7488V137.987ZM49.1008 136.835V127.955H50.8128C53.5008 127.955 55.1008 129.683 55.1008 132.387C55.1008 135.203 53.4688 136.835 50.8128 136.835H49.1008ZM62.1464 138.195C64.0664 138.195 65.4424 137.091 65.9064 135.539L64.6744 135.251C64.4024 136.403 63.3304 137.075 62.1624 137.075C60.4344 137.075 59.3464 136.035 59.3304 134.179H66.0184V133.715C66.0184 131.219 64.5784 129.459 62.0664 129.459C59.8584 129.459 58.0344 131.203 58.0344 133.859C58.0344 136.419 59.6184 138.195 62.1464 138.195ZM59.3624 133.155C59.4584 131.587 60.7064 130.595 62.0664 130.595C63.4424 130.595 64.6424 131.427 64.7224 133.155H59.3624ZM71.5485 137.987H72.7325V136.883H71.5325C70.6525 136.883 70.2845 136.499 70.2845 135.603V130.739H72.8445V129.667H70.2845V127.251H69.1005V129.667H67.4525V130.739H69.0205V135.619C69.0205 137.299 70.0285 137.987 71.5485 137.987ZM78.5828 138.195C80.3908 138.195 81.1588 137.011 81.3668 136.675H81.4628V136.755C81.4788 137.475 81.9908 137.987 82.6788 137.987H83.4948V136.867H83.1108C82.8548 136.867 82.6948 136.739 82.6948 136.483V129.667H81.4148V131.011H81.3188C81.0788 130.579 80.2148 129.459 78.4868 129.459C76.1188 129.459 74.5188 131.283 74.5188 133.843C74.5188 136.387 76.1988 138.195 78.5828 138.195ZM78.6468 137.059C77.0468 137.059 75.8148 135.795 75.8148 133.859C75.8148 131.955 76.9988 130.611 78.6308 130.611C80.1828 130.611 81.4628 131.795 81.4628 133.859C81.4628 135.603 80.3908 137.059 78.6468 137.059ZM87.6051 128.163C88.1491 128.163 88.5331 127.763 88.5331 127.235C88.5331 126.723 88.1491 126.323 87.6051 126.323C87.0771 126.323 86.6931 126.723 86.6931 127.235C86.6931 127.763 87.0771 128.163 87.6051 128.163ZM86.9811 137.987H88.2451V129.667H85.4131V130.739H86.9811V137.987ZM91.0088 137.987H95.6328V136.899H93.9528V125.987H91.0088V127.075H92.6888V136.899H91.0088V137.987ZM100.38 138.195C102.316 138.195 103.612 137.139 103.612 135.571C103.612 132.131 98.6195 133.891 98.6195 131.779C98.6195 131.059 99.2915 130.547 100.332 130.547C101.42 130.547 102.22 131.139 102.332 132.115L103.436 131.795C103.244 130.291 101.852 129.459 100.411 129.459C98.6675 129.459 97.4035 130.371 97.4035 131.779C97.4035 135.075 102.38 133.299 102.38 135.635C102.38 136.483 101.692 137.091 100.444 137.091C99.1795 137.091 98.3955 136.515 98.2995 135.395L97.1475 135.683C97.3395 137.171 98.5075 138.195 100.38 138.195ZM119.509 137.987L117.989 135.955C118.549 135.043 118.837 133.891 118.837 132.643H117.621C117.621 133.459 117.477 134.227 117.189 134.883L112.117 128.067V127.971H117.237V126.787H110.933V128.419L112.837 130.995C110.981 131.651 110.021 133.011 110.021 134.595C110.021 136.435 111.477 138.195 113.909 138.195C115.269 138.195 116.389 137.731 117.221 136.931L118.005 137.987H119.509ZM113.909 137.043C112.485 137.043 111.285 135.939 111.285 134.531C111.285 133.539 111.941 132.371 113.589 132.003L116.501 135.955C115.877 136.627 115.013 137.043 113.909 137.043ZM126.147 137.987H127.443V133.459H129.331L132.131 137.987H133.699L130.691 133.347C132.435 133.027 133.347 131.715 133.347 130.051C133.347 128.099 131.987 126.787 129.699 126.787H126.147V137.987ZM127.443 132.307V127.939H129.619C131.203 127.939 132.003 128.883 132.003 130.067C132.003 131.539 131.011 132.307 129.699 132.307H127.443ZM139.256 138.195C141.176 138.195 142.552 137.091 143.016 135.539L141.784 135.251C141.512 136.403 140.44 137.075 139.272 137.075C137.544 137.075 136.456 136.035 136.44 134.179H143.128V133.715C143.128 131.219 141.688 129.459 139.176 129.459C136.968 129.459 135.144 131.203 135.144 133.859C135.144 136.419 136.728 138.195 139.256 138.195ZM136.472 133.155C136.568 131.587 137.816 130.595 139.176 130.595C140.552 130.595 141.752 131.427 141.832 133.155H136.472ZM144.478 137.987H149.102V136.899H147.422V125.987H144.478V127.075H146.158V136.899H144.478V137.987ZM154.412 138.195C156.332 138.195 157.708 137.091 158.172 135.539L156.94 135.251C156.668 136.403 155.596 137.075 154.428 137.075C152.7 137.075 151.612 136.035 151.596 134.179H158.284V133.715C158.284 131.219 156.844 129.459 154.332 129.459C152.124 129.459 150.3 131.203 150.3 133.859C150.3 136.419 151.884 138.195 154.412 138.195ZM151.628 133.155C151.724 131.587 152.972 130.595 154.332 130.595C155.708 130.595 156.908 131.427 156.988 133.155H151.628ZM163.942 138.195C165.75 138.195 166.518 137.011 166.726 136.675H166.822V136.755C166.838 137.475 167.35 137.987 168.038 137.987H168.854V136.867H168.47C168.214 136.867 168.054 136.739 168.054 136.483V129.667H166.774V131.011H166.678C166.438 130.579 165.574 129.459 163.846 129.459C161.478 129.459 159.878 131.283 159.878 133.843C159.878 136.387 161.558 138.195 163.942 138.195ZM164.006 137.059C162.406 137.059 161.174 135.795 161.174 133.859C161.174 131.955 162.358 130.611 163.99 130.611C165.542 130.611 166.822 131.795 166.822 133.859C166.822 135.603 165.75 137.059 164.006 137.059ZM174.005 138.195C175.941 138.195 177.237 137.139 177.237 135.571C177.237 132.131 172.245 133.891 172.245 131.779C172.245 131.059 172.917 130.547 173.957 130.547C175.045 130.547 175.845 131.139 175.957 132.115L177.061 131.795C176.869 130.291 175.477 129.459 174.036 129.459C172.293 129.459 171.029 130.371 171.029 131.779C171.029 135.075 176.005 133.299 176.005 135.635C176.005 136.483 175.317 137.091 174.069 137.091C172.805 137.091 172.021 136.515 171.924 135.395L170.773 135.683C170.965 137.171 172.133 138.195 174.005 138.195ZM183.193 138.195C185.113 138.195 186.489 137.091 186.953 135.539L185.721 135.251C185.449 136.403 184.377 137.075 183.209 137.075C181.481 137.075 180.393 136.035 180.377 134.179H187.065V133.715C187.065 131.219 185.625 129.459 183.113 129.459C180.905 129.459 179.081 131.203 179.081 133.859C179.081 136.419 180.665 138.195 183.193 138.195ZM180.409 133.155C180.505 131.587 181.753 130.595 183.113 130.595C184.489 130.595 185.689 131.427 185.769 133.155H180.409Z" fill="#0E0E2C"/>
</svg>
