<svg width="173" height="155" viewBox="0 0 173 155" fill="none" xmlns="http://www.w3.org/2000/svg">
<path d="M123.044 43.314L115.327 31.5178C115.143 31.1492 114.96 30.6884 114.96 30.2276C113.49 12.9942 99.3424 0 82.0717 0C63.8823 0 49 14.8373 49 33.1767C49 43.7748 53.8689 54.3728 62.1368 61.3768C62.3205 61.5611 62.688 61.9298 62.688 62.4827V79.9926C62.688 82.6652 64.709 84.9691 67.3731 85.1534L93.6468 87.4574C93.8305 87.4574 93.9223 87.4574 94.1061 87.4574C95.3922 87.4574 96.6783 86.9966 97.597 86.075C98.6994 85.0613 99.2506 83.6789 99.2506 82.2965V70.9612H107.427C111.652 70.9612 115.051 67.5514 115.051 63.3121V52.5297H117.991C120.196 52.5297 122.125 51.3317 123.228 49.3964C124.33 47.461 124.238 45.1571 123.044 43.314ZM118.818 47.0003C118.726 47.1846 118.451 47.461 117.991 47.461H113.49C111.561 47.461 109.999 49.0277 109.999 50.963V63.3121C109.999 64.7866 108.805 65.8925 107.427 65.8925H98.24C96.0353 65.8925 94.2898 67.6435 94.2898 69.8553L94.1061 82.4809L67.7406 79.9926V62.4827C67.7406 60.6396 66.9138 58.7964 65.444 57.5984C58.4622 51.6081 54.0526 42.2081 54.0526 33.1767C54.0526 17.6021 66.5464 5.06866 82.0717 5.06866C96.6783 5.06866 108.713 16.1275 109.999 30.6884C110.091 31.8865 110.458 32.9923 111.101 34.1904L118.91 46.0787C119.094 46.4473 118.91 46.8159 118.818 47.0003Z" fill="#7601F0"/>
<path d="M67.5569 30.7802C67.9243 31.1488 68.3837 31.3331 68.9348 31.3331C69.3942 31.3331 69.9454 31.1488 70.3128 30.7802L73.0688 28.0155L75.8248 30.7802C76.1922 31.1488 76.6516 31.3331 77.2028 31.3331C77.6621 31.3331 78.2133 31.1488 78.5808 30.7802C79.3157 30.0429 79.3157 28.8449 78.5808 28.1076L75.8248 25.3429L78.5808 22.5782C79.3157 21.8409 79.3157 20.6429 78.5808 19.9056C77.8458 19.1683 76.6516 19.1683 75.9166 19.9056L73.1607 22.6703L70.4047 19.9056C69.6698 19.1683 68.4755 19.1683 67.7406 19.9056C67.0057 20.6429 67.0057 21.8409 67.7406 22.5782L70.4966 25.3429L67.7406 28.1076C66.7301 28.8449 66.7301 30.0429 67.5569 30.7802Z" fill="#7601F0"/>
<path d="M96.9539 38.7059C96.2189 37.9686 95.0247 37.9686 94.2897 38.7059L91.5338 41.4706L88.7778 38.7059C88.0429 37.9686 86.8486 37.9686 86.1137 38.7059C85.3788 39.4432 85.3788 40.6412 86.1137 41.3785L88.8697 44.1432L86.1137 46.9079C85.3788 47.6452 85.3788 48.8432 86.1137 49.5805C86.4812 49.9491 86.9405 50.1334 87.4917 50.1334C87.951 50.1334 88.5022 49.9491 88.8697 49.5805L91.6256 46.8157L94.3816 49.5805C94.7491 49.9491 95.2084 50.1334 95.7596 50.1334C96.2189 50.1334 96.7701 49.9491 97.1376 49.5805C97.8725 48.8432 97.8725 47.6452 97.1376 46.9079L94.3816 44.1432L97.1376 41.3785C97.6888 40.6412 97.6888 39.4432 96.9539 38.7059Z" fill="#7601F0"/>
<path d="M96.2189 18.8003H87.4917C86.4811 18.8003 85.5625 19.6297 85.5625 20.7356C85.5625 21.7493 86.3893 22.6709 87.4917 22.6709H91.6256L76.2841 38.0612C75.3654 37.5082 74.263 37.2318 73.0687 37.2318C69.3941 37.2318 66.3625 40.273 66.3625 43.9593C66.3625 47.6456 69.3941 50.6867 73.0687 50.6867C76.7434 50.6867 79.7749 47.6456 79.7749 43.9593C79.7749 42.7612 79.4993 41.7475 78.9482 40.7338L94.2897 25.3435V29.4906C94.2897 30.5043 95.1165 31.4259 96.2189 31.4259C97.2294 31.4259 98.1481 30.5964 98.1481 29.4906V20.7356C98.1481 19.7219 97.2294 18.8003 96.2189 18.8003ZM73.0687 46.9083C71.507 46.9083 70.2209 45.6181 70.2209 44.0514C70.2209 42.4847 71.507 41.1024 73.0687 41.1024C74.6305 41.1024 75.9166 42.3926 75.9166 44.0514C75.9166 45.5259 74.6305 46.9083 73.0687 46.9083Z" fill="#7601F0"/>
<path d="M40.876 109.657H34.42V126.457H38.044V121.225H40.876C44.26 121.225 46.804 118.753 46.804 115.441C46.804 112.129 44.236 109.657 40.876 109.657ZM40.708 117.865H38.044V113.041H40.708C42.148 113.041 43.132 114.049 43.132 115.441C43.132 116.833 42.148 117.865 40.708 117.865ZM49.1097 126.457H52.6137V108.841H49.1097V126.457ZM66.5369 113.497L66.1769 114.721C65.0489 113.737 63.5849 113.137 61.9049 113.137C58.0169 113.137 55.1129 116.065 55.1129 119.977C55.1129 123.889 58.0169 126.841 61.9049 126.841C63.5609 126.841 65.0009 126.265 66.1049 125.281L66.4169 126.457H69.1529V113.497H66.5369ZM62.1929 123.529C60.1529 123.529 58.6649 121.993 58.6649 119.977C58.6649 117.937 60.1529 116.425 62.1929 116.425C64.2329 116.425 65.7209 117.937 65.7209 119.977C65.7209 122.017 64.2329 123.529 62.1929 123.529ZM79.9152 113.209C78.1632 113.209 76.6032 113.953 75.6192 115.105L74.9472 113.497H72.5472V126.457H76.0512V119.665C76.0512 117.577 77.1552 116.281 78.9552 116.281C80.4672 116.281 81.2112 117.217 81.2112 119.185V126.457H84.7152V118.609C84.7152 115.321 82.8672 113.209 79.9152 113.209ZM95.2902 113.209C93.5382 113.209 91.9782 113.953 90.9942 115.105L90.3222 113.497H87.9222V126.457H91.4262V119.665C91.4262 117.577 92.5302 116.281 94.3302 116.281C95.8422 116.281 96.5862 117.217 96.5862 119.185V126.457H100.09V118.609C100.09 115.321 98.2422 113.209 95.2902 113.209ZM103.297 111.769H106.777V108.529H103.297V111.769ZM103.297 126.457H106.801V113.497H103.297V126.457ZM117.532 113.209C115.78 113.209 114.22 113.953 113.236 115.105L112.564 113.497H110.164V126.457H113.668V119.665C113.668 117.577 114.772 116.281 116.572 116.281C118.084 116.281 118.828 117.217 118.828 119.185V126.457H122.332V118.609C122.332 115.321 120.484 113.209 117.532 113.209ZM136.003 113.497L135.427 114.793C134.299 113.761 132.811 113.137 131.131 113.137C127.507 113.137 124.675 116.017 124.675 119.641C124.675 123.289 127.507 126.145 131.131 126.145C132.523 126.145 133.795 125.713 134.827 124.993V125.473C134.827 127.369 133.363 128.521 131.587 128.521C130.291 128.521 128.923 127.921 128.515 126.745H125.035C125.635 129.697 128.131 131.497 131.635 131.497C135.739 131.497 138.259 129.025 138.259 124.969V113.521L136.003 113.497ZM131.539 123.001C129.619 123.001 128.227 121.585 128.227 119.665C128.227 117.721 129.619 116.305 131.539 116.305C133.459 116.305 134.851 117.721 134.851 119.665C134.851 121.585 133.459 123.001 131.539 123.001Z" fill="#7601F0"/>
<path d="M1.28 150.457H5.344C8.896 150.457 10.96 148.329 10.96 144.857C10.96 141.593 8.896 139.257 5.344 139.257H1.28V140.361H2.336V149.353H1.28V150.457ZM3.632 149.305V140.425H5.344C8.032 140.425 9.632 142.153 9.632 144.857C9.632 147.673 8 149.305 5.344 149.305H3.632ZM14.9176 140.633C15.4616 140.633 15.8456 140.233 15.8456 139.705C15.8456 139.193 15.4616 138.793 14.9176 138.793C14.3896 138.793 14.0056 139.193 14.0056 139.705C14.0056 140.233 14.3896 140.633 14.9176 140.633ZM14.2936 150.457H15.5576V142.137H12.7256V143.209H14.2936V150.457ZM21.4733 150.665C23.4093 150.665 24.7053 149.609 24.7053 148.041C24.7053 144.601 19.7133 146.361 19.7133 144.249C19.7133 143.529 20.3853 143.017 21.4253 143.017C22.5133 143.017 23.3133 143.609 23.4253 144.585L24.5293 144.265C24.3373 142.761 22.9453 141.929 21.5052 141.929C19.7613 141.929 18.4973 142.841 18.4973 144.249C18.4973 147.545 23.4733 145.769 23.4733 148.105C23.4733 148.953 22.7853 149.561 21.5373 149.561C20.2733 149.561 19.4893 148.985 19.3932 147.865L18.2413 148.153C18.4333 149.641 19.6013 150.665 21.4733 150.665ZM30.822 150.665C32.63 150.665 34.246 149.577 34.694 147.721L33.446 147.433C33.222 148.681 32.166 149.513 30.87 149.513C29.126 149.513 27.862 148.169 27.862 146.297C27.862 144.489 29.062 143.081 30.838 143.081C32.134 143.081 33.19 143.913 33.414 145.161L34.662 144.873C34.214 143.017 32.614 141.929 30.806 141.929C28.358 141.929 26.55 143.833 26.55 146.297C26.55 148.761 28.31 150.665 30.822 150.665ZM40.636 150.665C43.132 150.665 44.988 148.793 44.988 146.297C44.988 143.801 43.164 141.929 40.652 141.929C38.172 141.929 36.3 143.785 36.3 146.297C36.3 148.825 38.14 150.665 40.636 150.665ZM40.636 149.513C38.86 149.513 37.596 148.169 37.596 146.297C37.596 144.473 38.844 143.081 40.636 143.081C42.428 143.081 43.692 144.457 43.692 146.297C43.692 148.153 42.428 149.513 40.636 149.513ZM49.209 150.457H50.873L53.961 142.137H52.569L50.073 149.273H49.977L47.465 142.137H46.105L49.209 150.457ZM59.1933 150.665C61.1133 150.665 62.4893 149.561 62.9533 148.009L61.7213 147.721C61.4493 148.873 60.3773 149.545 59.2093 149.545C57.4813 149.545 56.3932 148.505 56.3773 146.649H63.0653V146.185C63.0653 143.689 61.6253 141.929 59.1133 141.929C56.9053 141.929 55.0813 143.673 55.0813 146.329C55.0813 148.889 56.6653 150.665 59.1933 150.665ZM56.4093 145.625C56.5053 144.057 57.7533 143.065 59.1133 143.065C60.4893 143.065 61.6893 143.897 61.7693 145.625H56.4093ZM65.2994 150.457H66.5634V146.009C66.5634 144.425 67.1874 143.193 68.7074 143.193H69.4594V141.929H68.9154C67.6994 141.929 66.8834 142.825 66.6434 143.529H66.5474V142.137H65.2994V150.457ZM71.0538 154.137H71.9338C73.2778 154.137 74.0458 153.657 74.4618 152.569L78.5098 142.137H77.0858L74.5098 149.241H74.4138L71.9818 142.137H70.5738L73.6298 150.457H73.9658L73.3738 152.009C73.1178 152.665 72.7498 152.985 71.9818 152.985H71.0538V154.137ZM93.8368 150.457L92.3168 148.425C92.8767 147.513 93.1648 146.361 93.1648 145.113H91.9488C91.9488 145.929 91.8048 146.697 91.5168 147.353L86.4448 140.537V140.441H91.5648V139.257H85.2608V140.889L87.1648 143.465C85.3088 144.121 84.3488 145.481 84.3488 147.065C84.3488 148.905 85.8048 150.665 88.2368 150.665C89.5968 150.665 90.7168 150.201 91.5487 149.401L92.3328 150.457H93.8368ZM88.2368 149.513C86.8128 149.513 85.6128 148.409 85.6128 147.001C85.6128 146.009 86.2688 144.841 87.9168 144.473L90.8288 148.425C90.2048 149.097 89.3408 149.513 88.2368 149.513ZM100.475 150.457H101.771V145.929H103.659L106.459 150.457H108.027L105.019 145.817C106.763 145.497 107.675 144.185 107.675 142.521C107.675 140.569 106.315 139.257 104.027 139.257H100.475V150.457ZM101.771 144.777V140.409H103.947C105.531 140.409 106.331 141.353 106.331 142.537C106.331 144.009 105.339 144.777 104.027 144.777H101.771ZM113.584 150.665C115.504 150.665 116.88 149.561 117.344 148.009L116.112 147.721C115.84 148.873 114.768 149.545 113.6 149.545C111.872 149.545 110.784 148.505 110.768 146.649H117.456V146.185C117.456 143.689 116.016 141.929 113.504 141.929C111.296 141.929 109.472 143.673 109.472 146.329C109.472 148.889 111.056 150.665 113.584 150.665ZM110.8 145.625C110.896 144.057 112.144 143.065 113.504 143.065C114.88 143.065 116.08 143.897 116.16 145.625H110.8ZM122.442 150.665C124.378 150.665 125.674 149.609 125.674 148.041C125.674 144.601 120.682 146.361 120.682 144.249C120.682 143.529 121.354 143.017 122.394 143.017C123.482 143.017 124.282 143.609 124.394 144.585L125.498 144.265C125.306 142.761 123.914 141.929 122.474 141.929C120.73 141.929 119.466 142.841 119.466 144.249C119.466 147.545 124.442 145.769 124.442 148.105C124.442 148.953 123.754 149.561 122.506 149.561C121.242 149.561 120.458 148.985 120.362 147.865L119.21 148.153C119.402 149.641 120.57 150.665 122.442 150.665ZM131.631 150.665C133.551 150.665 134.927 149.561 135.391 148.009L134.159 147.721C133.887 148.873 132.815 149.545 131.647 149.545C129.919 149.545 128.831 148.505 128.815 146.649H135.503V146.185C135.503 143.689 134.063 141.929 131.551 141.929C129.343 141.929 127.519 143.673 127.519 146.329C127.519 148.889 129.103 150.665 131.631 150.665ZM128.847 145.625C128.943 144.057 130.191 143.065 131.551 143.065C132.927 143.065 134.127 143.897 134.207 145.625H128.847ZM141.161 150.665C142.969 150.665 143.737 149.481 143.945 149.145H144.041V149.225C144.057 149.945 144.569 150.457 145.257 150.457H146.073V149.337H145.689C145.433 149.337 145.273 149.209 145.273 148.953V142.137H143.993V143.481H143.897C143.657 143.049 142.793 141.929 141.065 141.929C138.697 141.929 137.097 143.753 137.097 146.313C137.097 148.857 138.777 150.665 141.161 150.665ZM141.225 149.529C139.625 149.529 138.393 148.265 138.393 146.329C138.393 144.425 139.577 143.081 141.209 143.081C142.761 143.081 144.041 144.265 144.041 146.329C144.041 148.073 142.969 149.529 141.225 149.529ZM148.471 150.457H149.735V146.009C149.735 144.425 150.359 143.193 151.879 143.193H152.631V141.929H152.087C150.871 141.929 150.055 142.825 149.815 143.529H149.719V142.137H148.471V150.457ZM158.025 150.665C159.833 150.665 161.449 149.577 161.897 147.721L160.649 147.433C160.425 148.681 159.369 149.513 158.073 149.513C156.329 149.513 155.065 148.169 155.065 146.297C155.065 144.489 156.265 143.081 158.041 143.081C159.337 143.081 160.393 143.913 160.617 145.161L161.865 144.873C161.417 143.017 159.817 141.929 158.009 141.929C155.561 141.929 153.753 143.833 153.753 146.297C153.753 148.761 155.513 150.665 158.025 150.665ZM164.143 150.457H165.407V145.401C165.407 144.057 166.495 143.113 167.775 143.113C168.943 143.113 169.951 143.977 169.951 145.305V150.457H171.215V145.225C171.215 143.385 170.015 141.929 168.079 141.929C166.783 141.929 165.855 142.601 165.503 143.353H165.407V138.457H164.143V150.457Z" fill="#7601F0"/>
</svg>
