<svg width="170" height="125" viewBox="0 0 170 125" fill="none" xmlns="http://www.w3.org/2000/svg">
<path d="M120 45H95C93.6175 45 92.5 46.12 92.5 47.5C92.5 48.88 93.6175 50 95 50H117.5C117.5 52.7575 115.257 55 112.5 55H57.5C54.7425 55 52.5 52.7575 52.5 50H75C76.38 50 77.5 48.88 77.5 47.5C77.5 46.12 76.38 45 75 45H50C48.62 45 47.5 46.12 47.5 47.5V50C47.5 55.515 51.985 60 57.5 60H112.5C118.015 60 122.5 55.515 122.5 50V47.5C122.5 46.12 121.382 45 120 45Z" fill="#0E0E2C"/>
<path d="M52.5 42.5C53.88 42.5 55 41.38 55 40V7.5C55 6.1225 56.1225 5 57.5 5H112.5C113.88 5 115 6.1225 115 7.5V40C115 41.38 116.118 42.5 117.5 42.5C118.882 42.5 120 41.38 120 40V7.5C120 3.365 116.635 0 112.5 0H57.5C53.365 0 50 3.365 50 7.5V40C50 41.38 51.12 42.5 52.5 42.5Z" fill="#0E0E2C"/>
<path d="M76.7676 15.7319C75.7901 14.7544 74.2101 14.7544 73.2326 15.7319L65.7326 23.2319C64.7551 24.2094 64.7551 25.7894 65.7326 26.7669L73.2326 34.2669C73.7201 34.7544 74.3601 34.9994 75.0001 34.9994C75.6401 34.9994 76.2801 34.7544 76.7676 34.2669C77.7451 33.2894 77.7451 31.7094 76.7676 30.7319L71.0351 24.9994L76.7676 19.2669C77.7451 18.2894 77.7451 16.7094 76.7676 15.7319Z" fill="#0E0E2C"/>
<path d="M93.2326 34.2669C93.7201 34.7544 94.3601 34.9994 95.0001 34.9994C95.6401 34.9994 96.2801 34.7544 96.7676 34.2669L104.268 26.7669C105.245 25.7894 105.245 24.2094 104.268 23.2319L96.7676 15.7319C95.7901 14.7544 94.2101 14.7544 93.2326 15.7319C92.2551 16.7094 92.2551 18.2894 93.2326 19.2669L98.9651 24.9994L93.2326 30.7319C92.2551 31.7094 92.2551 33.2894 93.2326 34.2669Z" fill="#0E0E2C"/>
<path d="M85.075 14.393L80.075 34.393C79.74 35.733 80.555 37.0905 81.895 37.4255C82.0975 37.478 82.3 37.5005 82.5025 37.5005C83.6225 37.5005 84.64 36.743 84.925 35.608L89.925 15.608C90.2625 14.268 89.4475 12.9105 88.105 12.5755C86.77 12.243 85.41 13.058 85.075 14.393Z" fill="#0E0E2C"/>
<path d="M11.256 82.2H4.92V99H11.256C16.2 99 19.776 95.472 19.776 90.6C19.776 85.728 16.2 82.2 11.256 82.2ZM11.184 95.64H8.544V85.584H11.184C14.064 85.584 16.056 87.624 16.056 90.6C16.056 93.528 14.064 95.64 11.184 95.64ZM35.0451 92.496C35.0451 88.752 32.3091 85.68 28.3251 85.68C24.4851 85.68 21.6051 88.632 21.6051 92.52C21.6051 96.408 24.5091 99.384 28.3251 99.384C31.3491 99.384 33.8211 97.584 34.7571 94.752H31.0851C30.5571 95.688 29.5491 96.264 28.3251 96.264C26.6211 96.264 25.4691 95.28 25.1571 93.504H34.9731C35.0211 93.168 35.0451 92.832 35.0451 92.496ZM28.3251 88.68C29.9091 88.68 31.0371 89.544 31.5411 91.128H25.2531C25.6611 89.592 26.7651 88.68 28.3251 88.68ZM45.5901 86.04L42.4701 94.728L39.3021 86.04H35.5581L40.8381 99H44.0781L49.2141 86.04H45.5901ZM63.2169 92.496C63.2169 88.752 60.4809 85.68 56.4969 85.68C52.6569 85.68 49.7769 88.632 49.7769 92.52C49.7769 96.408 52.6809 99.384 56.4969 99.384C59.5209 99.384 61.9929 97.584 62.9289 94.752H59.2569C58.7289 95.688 57.7209 96.264 56.4969 96.264C54.7929 96.264 53.6409 95.28 53.3289 93.504H63.1449C63.1929 93.168 63.2169 92.832 63.2169 92.496ZM56.4969 88.68C58.0809 88.68 59.2089 89.544 59.7129 91.128H53.4249C53.8329 89.592 54.9369 88.68 56.4969 88.68ZM65.7113 99H69.2153V81.384H65.7113V99ZM78.7224 99.384C82.7304 99.384 85.7304 96.432 85.7304 92.52C85.7304 88.608 82.7304 85.68 78.7224 85.68C74.7144 85.68 71.7144 88.608 71.7144 92.52C71.7144 96.432 74.7144 99.384 78.7224 99.384ZM78.7224 96.072C76.7064 96.072 75.2664 94.632 75.2664 92.52C75.2664 90.432 76.7064 88.968 78.7224 88.968C80.7384 88.968 82.1784 90.432 82.1784 92.52C82.1784 94.632 80.7384 96.072 78.7224 96.072ZM95.3141 85.68C93.7061 85.68 92.2661 86.256 91.1621 87.24L90.5621 86.04H88.2581V103.68H91.7621V98.304C92.7461 99 93.9701 99.408 95.3141 99.408C99.2261 99.408 102.106 96.456 102.106 92.52C102.106 88.608 99.2261 85.68 95.3141 85.68ZM95.0261 96.072C92.9861 96.072 91.4981 94.56 91.4981 92.52C91.4981 90.504 92.9861 88.968 95.0261 88.968C97.0661 88.968 98.5541 90.504 98.5541 92.52C98.5541 94.56 97.0661 96.072 95.0261 96.072ZM119.354 85.752C117.698 85.752 116.234 86.568 115.346 87.816C114.578 86.52 113.234 85.752 111.578 85.752C110.042 85.752 108.626 86.496 107.714 87.648L107.066 86.04H104.618V99H108.122V91.992C108.122 89.976 109.058 88.824 110.642 88.824C111.89 88.824 112.562 89.736 112.562 91.464V99H115.97V91.992C115.97 89.976 116.906 88.824 118.466 88.824C119.738 88.824 120.41 89.736 120.41 91.464V99H123.914V90.888C123.914 87.84 122.042 85.752 119.354 85.752ZM139.717 92.496C139.717 88.752 136.981 85.68 132.997 85.68C129.157 85.68 126.277 88.632 126.277 92.52C126.277 96.408 129.181 99.384 132.997 99.384C136.021 99.384 138.493 97.584 139.429 94.752H135.757C135.229 95.688 134.221 96.264 132.997 96.264C131.293 96.264 130.141 95.28 129.829 93.504H139.645C139.693 93.168 139.717 92.832 139.717 92.496ZM132.997 88.68C134.581 88.68 135.709 89.544 136.213 91.128H129.925C130.333 89.592 131.437 88.68 132.997 88.68ZM149.579 85.752C147.827 85.752 146.267 86.496 145.283 87.648L144.611 86.04H142.211V99H145.715V92.208C145.715 90.12 146.819 88.824 148.619 88.824C150.131 88.824 150.875 89.76 150.875 91.728V99H154.379V91.152C154.379 87.864 152.531 85.752 149.579 85.752ZM163.829 95.88C162.533 95.88 161.812 95.16 161.812 93.912V88.872H165.341V86.04H161.765V82.68H161.093L155.981 88.104V88.872H158.309V94.392C158.309 97.248 160.061 99 162.917 99H165.413V95.88H163.829Z" fill="#0E0E2C"/>
<path d="M1.6 123H2.896V117.992H7.648V116.824H2.896V112.984H7.984V111.8H1.6V123ZM10.2213 123H11.4853V118.552C11.4853 116.968 12.1093 115.736 13.6293 115.736H14.3813V114.472H13.8373C12.6213 114.472 11.8053 115.368 11.5653 116.072H11.4693V114.68H10.2213V123ZM19.8391 123.208C22.3351 123.208 24.1911 121.336 24.1911 118.84C24.1911 116.344 22.3671 114.472 19.8551 114.472C17.3751 114.472 15.5031 116.328 15.5031 118.84C15.5031 121.368 17.3431 123.208 19.8391 123.208ZM19.8391 122.056C18.0631 122.056 16.7991 120.712 16.7991 118.84C16.7991 117.016 18.0471 115.624 19.8391 115.624C21.6311 115.624 22.8951 117 22.8951 118.84C22.8951 120.696 21.6311 122.056 19.8391 122.056ZM26.4244 123H27.6884V118.04C27.6884 116.664 28.7124 115.656 30.0244 115.656C31.1924 115.656 32.1684 116.52 32.1684 117.848V123H33.4324V117.768C33.4324 115.928 32.2644 114.472 30.3284 114.472C29.0324 114.472 28.1364 115.144 27.7844 115.896H27.6884V114.68H26.4244V123ZM39.4548 123H40.6388V121.896H39.4388C38.5588 121.896 38.1908 121.512 38.1908 120.616V115.752H40.7508V114.68H38.1908V112.264H37.0068V114.68H35.3588V115.752H36.9268V120.632C36.9268 122.312 37.9348 123 39.4548 123ZM51.0214 123.208C52.9414 123.208 54.3174 122.104 54.7814 120.552L53.5494 120.264C53.2774 121.416 52.2054 122.088 51.0374 122.088C49.3094 122.088 48.2214 121.048 48.2054 119.192H54.8934V118.728C54.8934 116.232 53.4534 114.472 50.9414 114.472C48.7334 114.472 46.9094 116.216 46.9094 118.872C46.9094 121.432 48.4934 123.208 51.0214 123.208ZM48.2374 118.168C48.3334 116.6 49.5814 115.608 50.9414 115.608C52.3174 115.608 53.5174 116.44 53.5974 118.168H48.2374ZM57.1275 123H58.3915V118.04C58.3915 116.664 59.4155 115.656 60.7275 115.656C61.8955 115.656 62.8715 116.52 62.8715 117.848V123H64.1355V117.768C64.1355 115.928 62.9675 114.472 61.0315 114.472C59.7355 114.472 58.8395 115.144 58.4875 115.896H58.3915V114.68H57.1275V123ZM70.2859 123.208C72.0939 123.208 72.8779 121.992 73.0859 121.688H73.1819V123H74.3979V111H73.1339V116.024H73.0379C72.7819 115.592 71.9339 114.472 70.1899 114.472C67.8379 114.472 66.2219 116.296 66.2219 118.856C66.2219 121.4 67.9179 123.208 70.2859 123.208ZM70.3659 122.072C68.7499 122.072 67.5179 120.808 67.5179 118.872C67.5179 116.968 68.7019 115.624 70.3339 115.624C71.9019 115.624 73.1819 116.808 73.1819 118.872C73.1819 120.6 72.0939 122.072 70.3659 122.072ZM90.5243 123L89.0043 120.968C89.5642 120.056 89.8523 118.904 89.8523 117.656H88.6363C88.6363 118.472 88.4923 119.24 88.2043 119.896L83.1323 113.08V112.984H88.2523V111.8H81.9483V113.432L83.8523 116.008C81.9963 116.664 81.0363 118.024 81.0363 119.608C81.0363 121.448 82.4923 123.208 84.9243 123.208C86.2843 123.208 87.4043 122.744 88.2362 121.944L89.0203 123H90.5243ZM84.9243 122.056C83.5003 122.056 82.3003 120.952 82.3003 119.544C82.3003 118.552 82.9563 117.384 84.6043 117.016L87.5163 120.968C86.8923 121.64 86.0283 122.056 84.9243 122.056ZM96.8425 123H101.835C103.723 123 105.291 121.832 105.291 119.816C105.291 118.232 104.235 117.432 103.483 117.176V117.08C104.378 116.6 104.907 115.768 104.907 114.664C104.907 113.032 103.642 111.8 101.515 111.8H96.8425V112.904H97.8985V121.896H96.8425V123ZM99.1945 116.648V112.952H101.515C102.715 112.952 103.579 113.656 103.579 114.76C103.579 115.896 102.731 116.648 101.467 116.648H99.1945ZM99.1945 121.864V117.736H101.467C102.763 117.736 103.947 118.312 103.947 119.784C103.947 121.224 102.939 121.864 101.611 121.864H99.1945ZM110.958 123.208C112.766 123.208 113.534 122.024 113.742 121.688H113.838V121.768C113.854 122.488 114.366 123 115.054 123H115.87V121.88H115.486C115.23 121.88 115.07 121.752 115.07 121.496V114.68H113.79V116.024H113.694C113.454 115.592 112.59 114.472 110.862 114.472C108.494 114.472 106.894 116.296 106.894 118.856C106.894 121.4 108.574 123.208 110.958 123.208ZM111.022 122.072C109.422 122.072 108.19 120.808 108.19 118.872C108.19 116.968 109.374 115.624 111.006 115.624C112.558 115.624 113.838 116.808 113.838 118.872C113.838 120.616 112.766 122.072 111.022 122.072ZM121.9 123.208C123.708 123.208 125.324 122.12 125.772 120.264L124.524 119.976C124.3 121.224 123.244 122.056 121.948 122.056C120.204 122.056 118.94 120.712 118.94 118.84C118.94 117.032 120.14 115.624 121.916 115.624C123.212 115.624 124.268 116.456 124.492 117.704L125.74 117.416C125.292 115.56 123.692 114.472 121.884 114.472C119.436 114.472 117.628 116.376 117.628 118.84C117.628 121.304 119.388 123.208 121.9 123.208ZM128.018 123H129.282V119.048H130.786L133.25 123H134.754L131.81 118.456V118.36L134.546 114.68H133.09L130.738 117.896H129.282V111H128.018V123ZM144.475 123.208C146.395 123.208 147.771 122.104 148.235 120.552L147.003 120.264C146.731 121.416 145.659 122.088 144.491 122.088C142.763 122.088 141.674 121.048 141.659 119.192H148.347V118.728C148.347 116.232 146.907 114.472 144.395 114.472C142.187 114.472 140.363 116.216 140.363 118.872C140.363 121.432 141.947 123.208 144.475 123.208ZM141.691 118.168C141.787 116.6 143.035 115.608 144.395 115.608C145.771 115.608 146.971 116.44 147.051 118.168H141.691ZM150.581 123H151.845V118.04C151.845 116.664 152.869 115.656 154.181 115.656C155.349 115.656 156.325 116.52 156.325 117.848V123H157.589V117.768C157.589 115.928 156.421 114.472 154.485 114.472C153.189 114.472 152.293 115.144 151.941 115.896H151.845V114.68H150.581V123ZM163.739 123.208C165.547 123.208 166.331 121.992 166.539 121.688H166.635V123H167.851V111H166.587V116.024H166.491C166.235 115.592 165.387 114.472 163.643 114.472C161.291 114.472 159.675 116.296 159.675 118.856C159.675 121.4 161.371 123.208 163.739 123.208ZM163.819 122.072C162.203 122.072 160.971 120.808 160.971 118.872C160.971 116.968 162.155 115.624 163.787 115.624C165.355 115.624 166.635 116.808 166.635 118.872C166.635 120.6 165.547 122.072 163.819 122.072Z" fill="#0E0E2C"/>
</svg>
