<svg width="194" height="148" viewBox="0 0 194 148" fill="none" xmlns="http://www.w3.org/2000/svg">
<path d="M94.1394 16.6828L90.1645 13.3927L94.2378 8.47168L89.083 3.83699L92.533 0L99.5292 6.29047C100.558 7.21579 100.674 8.78798 99.7916 9.85399L94.1394 16.6828Z" fill="#0E0E2C"/>
<path d="M115.179 75.7914L112.68 71.2776C114.169 70.4527 115.599 69.5083 116.931 68.4705L120.103 72.5402C118.56 73.7426 116.903 74.8365 115.179 75.7914ZM124.46 68.5498L120.684 65.0334C121.838 63.7947 122.902 62.453 123.846 61.0454L128.131 63.9209C127.034 65.5544 125.799 67.1118 124.46 68.5498ZM131.024 58.7735L126.341 56.6071C127.053 55.0695 127.648 53.4626 128.11 51.831L133.075 53.2386C132.539 55.1292 131.849 56.9913 131.024 58.7735ZM134.234 47.4518L129.111 46.8384C129.263 45.5671 129.341 44.2756 129.34 42.9997C129.34 42.5873 129.332 42.1673 129.316 41.7514L134.472 41.5529C134.491 42.0347 134.5 42.5214 134.5 42.9994C134.5 44.4792 134.411 45.9773 134.234 47.4518ZM128.716 36.6991C128.384 35.0406 127.915 33.3939 127.323 31.8052L132.159 30.0039C132.846 31.8484 133.389 33.7599 133.775 35.6859L128.716 36.6991ZM125.176 27.1855C124.341 25.7027 123.385 24.2795 122.337 22.9555L126.382 19.7525C127.597 21.2872 128.704 22.9359 129.671 24.6529L125.176 27.1855ZM118.872 19.2296C117.625 18.0859 116.275 17.0322 114.86 16.0978L117.703 11.7923C119.345 12.8764 120.912 14.0992 122.359 15.427L118.872 19.2296ZM110.404 13.6355C108.861 12.9354 107.25 12.3514 105.614 11.9L106.987 6.92627C108.882 7.4493 110.748 8.12575 112.536 8.93687L110.404 13.6355Z" fill="#0E0E2C"/>
<path d="M97.0597 80.5044C93.5903 80.5044 90.1002 80.0183 86.6729 79.0364C77.0473 76.2789 69.0729 69.9413 64.218 61.191C59.3628 52.44 58.2091 42.3238 60.9696 32.7058C63.7301 23.0883 70.0737 15.1206 78.8317 10.2702C84.6595 7.04294 91.2419 5.42208 97.8674 5.57859L97.7444 10.737C92.0294 10.6013 86.3583 12.0003 81.3315 14.784C73.7793 18.9665 68.3094 25.8368 65.9293 34.1294C63.5495 42.4214 64.5441 51.1431 68.7299 58.6878C77.3724 74.2646 97.0874 79.9127 112.679 71.2776L115.179 75.7914C109.54 78.9145 103.334 80.5042 97.0597 80.5044Z" fill="#0E0E2C"/>
<path d="M113.326 43C113.326 42.3074 113.282 41.625 113.198 40.9548C113.15 40.5753 113.306 40.1959 113.618 39.9749L117.751 37.0499C118.175 36.75 118.298 36.1757 118.036 35.7279L113.652 28.2513C113.394 27.8122 112.848 27.6366 112.383 27.8433L110.172 28.8255L107.703 29.9228C107.361 30.075 106.963 30.0209 106.663 29.7965C105.554 28.968 104.338 28.2721 103.039 27.7319C102.688 27.5858 102.436 27.2641 102.398 26.8854L101.892 21.899C101.84 21.3884 101.41 21 100.897 21H92.1034C91.5902 21 91.1603 21.3884 91.1085 21.899L90.6021 26.8854C90.5636 27.2641 90.3124 27.5858 89.9609 27.7319C88.6616 28.272 87.4455 28.9679 86.337 29.7964C86.0368 30.0208 85.6393 30.075 85.2968 29.9228L80.617 27.8433C80.1519 27.6366 79.6057 27.8122 79.3483 28.2513L74.9643 35.7279C74.7017 36.1757 74.8254 36.75 75.2492 37.0499L79.3816 39.9749C79.6938 40.1959 79.85 40.5753 79.8023 40.9548C79.7182 41.6249 79.6743 42.3074 79.6743 43C79.6743 43.6926 79.7181 44.3749 79.8022 45.045C79.8499 45.4247 79.6938 45.8042 79.3815 46.0252L75.2492 48.9501C74.8254 49.25 74.7017 49.8243 74.9643 50.2721L79.3483 57.7487C79.6057 58.1878 80.1519 58.3634 80.617 58.1567L85.2968 56.0772C85.6393 55.925 86.0367 55.9791 86.337 56.2035C87.4455 57.032 88.6616 57.7279 89.9609 58.2681C90.3124 58.4142 90.5636 58.7359 90.6021 59.1146L91.1085 64.101C91.1603 64.6116 91.5902 65 92.1034 65H100.897C101.41 65 101.84 64.6116 101.892 64.101L102.398 59.1146C102.436 58.7359 102.688 58.4142 103.039 58.2681C104.338 57.728 105.554 57.0321 106.663 56.2036C106.963 55.9791 107.361 55.925 107.703 56.0772L112.383 58.1567C112.848 58.3634 113.394 58.1878 113.652 57.7487L118.036 50.2721C118.298 49.8243 118.175 49.25 117.751 48.9501L113.618 46.0251C113.306 45.8041 113.15 45.4247 113.198 45.0452C113.282 44.3749 113.326 43.6925 113.326 43Z" stroke="#0E0E2C" stroke-width="4"/>
<path d="M91.81 45.588C94.618 42.366 95.248 41.016 95.248 39.558C95.248 37.344 93.592 35.796 91.234 35.796C88.84 35.796 87.31 37.38 87.31 39.576V39.846H89.884V39.612C89.884 38.766 90.424 38.19 91.288 38.19C92.098 38.19 92.656 38.748 92.656 39.576C92.656 40.818 92.008 41.754 87.076 47.442V48H95.464V45.588H91.81ZM105.847 43.464H104.821V40.62H102.877L102.463 43.464H99.9613L103.129 36.03H100.591L96.6493 45.246V45.714H102.391V48H104.821V45.714H105.847V43.464Z" fill="#0E0E2C"/>
<path d="M54.488 119.84C57.968 119.84 60.848 118.088 60.848 114.464C60.848 110.696 57.632 109.904 55.088 109.256C53.288 108.824 51.848 108.464 51.848 107.288C51.848 106.184 53.024 105.68 54.2 105.68C55.568 105.68 56.768 106.352 56.768 107.816H60.344C60.344 104.456 58.16 102.392 54.296 102.392C50.576 102.392 48.2 104.216 48.2 107.432C48.2 111.056 51.272 111.8 53.816 112.424C55.64 112.832 57.176 113.192 57.176 114.512C57.176 115.76 55.832 116.48 54.464 116.48C52.976 116.48 51.632 115.688 51.632 114.08H47.96C47.96 117.68 50.624 119.84 54.488 119.84ZM69.4434 119.888C73.1154 119.888 75.5394 117.536 75.5394 114.032V106.544H72.0354V113.648C72.0354 115.472 71.0754 116.576 69.4434 116.576C67.8354 116.576 66.8514 115.496 66.8514 113.648V106.544H63.3474V114.032C63.3474 117.536 65.7954 119.888 69.4434 119.888ZM85.7829 106.184C84.1749 106.184 82.7349 106.76 81.6309 107.744L81.0309 106.544H78.7269V124.184H82.2309V118.808C83.2149 119.504 84.4389 119.912 85.7829 119.912C89.6949 119.912 92.5749 116.96 92.5749 113.024C92.5749 109.112 89.6949 106.184 85.7829 106.184ZM85.4949 116.576C83.4549 116.576 81.9669 115.064 81.9669 113.024C81.9669 111.008 83.4549 109.472 85.4949 109.472C87.5349 109.472 89.0229 111.008 89.0229 113.024C89.0229 115.064 87.5349 116.576 85.4949 116.576ZM102.142 106.184C100.534 106.184 99.0943 106.76 97.9903 107.744L97.3903 106.544H95.0863V124.184H98.5903V118.808C99.5742 119.504 100.798 119.912 102.142 119.912C106.054 119.912 108.934 116.96 108.934 113.024C108.934 109.112 106.054 106.184 102.142 106.184ZM101.854 116.576C99.8143 116.576 98.3263 115.064 98.3263 113.024C98.3263 111.008 99.8143 109.472 101.854 109.472C103.894 109.472 105.382 111.008 105.382 113.024C105.382 115.064 103.894 116.576 101.854 116.576ZM117.59 119.888C121.598 119.888 124.598 116.936 124.598 113.024C124.598 109.112 121.598 106.184 117.59 106.184C113.582 106.184 110.582 109.112 110.582 113.024C110.582 116.936 113.582 119.888 117.59 119.888ZM117.59 116.576C115.574 116.576 114.134 115.136 114.134 113.024C114.134 110.936 115.574 109.472 117.59 109.472C119.606 109.472 121.046 110.936 121.046 113.024C121.046 115.136 119.606 116.576 117.59 116.576ZM143.949 116.288C142.557 116.288 141.789 115.52 141.789 114.104V109.52H145.413V106.568H141.789V102.944H138.285V106.568H135.501V109.52H138.285V114.296C138.285 117.488 140.325 119.528 143.493 119.528H145.437V116.288H143.949ZM129.981 108.152L129.357 106.544H127.125V119.504H130.629V112.736C130.629 110.6 131.397 109.736 133.365 109.736H134.589V106.496H133.749C132.093 106.496 130.917 107 129.981 108.152Z" fill="#0E0E2C"/>
<path d="M5.616 143.712C8.272 143.712 9.792 142 9.792 139.472V132.304H8.512V139.456C8.512 141.328 7.504 142.512 5.616 142.512C3.728 142.512 2.736 141.328 2.736 139.472V132.304H1.44V139.488C1.44 142.032 2.928 143.712 5.616 143.712ZM12.6744 147.184H13.9384V142.16H14.0344C14.3064 142.672 15.1384 143.712 16.8824 143.712C19.2344 143.712 20.8504 141.904 20.8504 139.328C20.8504 136.784 19.1544 134.976 16.7864 134.976C14.9784 134.976 14.1944 136.192 13.9864 136.496H13.8904V135.184H12.6744V147.184ZM16.7384 142.56C15.1704 142.56 13.8904 141.376 13.8904 139.328C13.8904 137.584 14.9784 136.128 16.7064 136.128C18.3064 136.128 19.5544 137.376 19.5544 139.328C19.5544 141.232 18.3704 142.56 16.7384 142.56ZM26.5203 143.712C28.3283 143.712 29.1123 142.496 29.3203 142.192H29.4163V143.504H30.6323V131.504H29.3683V136.528H29.2723C29.0163 136.096 28.1683 134.976 26.4243 134.976C24.0723 134.976 22.4563 136.8 22.4563 139.36C22.4563 141.904 24.1523 143.712 26.5203 143.712ZM26.6003 142.576C24.9843 142.576 23.7523 141.312 23.7523 139.376C23.7523 137.472 24.9363 136.128 26.5683 136.128C28.1363 136.128 29.4163 137.312 29.4163 139.376C29.4163 141.104 28.3283 142.576 26.6003 142.576ZM36.7703 143.712C38.5783 143.712 39.3463 142.528 39.5543 142.192H39.6503V142.272C39.6663 142.992 40.1783 143.504 40.8663 143.504H41.6823V142.384H41.2983C41.0423 142.384 40.8823 142.256 40.8823 142V135.184H39.6023V136.528H39.5063C39.2663 136.096 38.4023 134.976 36.6743 134.976C34.3063 134.976 32.7063 136.8 32.7063 139.36C32.7063 141.904 34.3863 143.712 36.7703 143.712ZM36.8343 142.576C35.2343 142.576 34.0023 141.312 34.0023 139.376C34.0023 137.472 35.1863 136.128 36.8183 136.128C38.3703 136.128 39.6503 137.312 39.6503 139.376C39.6503 141.12 38.5783 142.576 36.8343 142.576ZM47.3766 143.504H48.5606V142.4H47.3606C46.4806 142.4 46.1126 142.016 46.1126 141.12V136.256H48.6726V135.184H46.1126V132.768H44.9286V135.184H43.2806V136.256H44.8486V141.136C44.8486 142.816 45.8566 143.504 47.3766 143.504ZM54.4589 143.712C56.3789 143.712 57.7549 142.608 58.2189 141.056L56.9869 140.768C56.7149 141.92 55.6429 142.592 54.4749 142.592C52.7469 142.592 51.6589 141.552 51.6429 139.696H58.3309V139.232C58.3309 136.736 56.8909 134.976 54.3789 134.976C52.1709 134.976 50.3469 136.72 50.3469 139.376C50.3469 141.936 51.9309 143.712 54.4589 143.712ZM51.6749 138.672C51.7709 137.104 53.0189 136.112 54.3789 136.112C55.7549 136.112 56.9549 136.944 57.0349 138.672H51.6749ZM63.317 143.712C65.253 143.712 66.549 142.656 66.549 141.088C66.549 137.648 61.557 139.408 61.557 137.296C61.557 136.576 62.229 136.064 63.269 136.064C64.357 136.064 65.157 136.656 65.269 137.632L66.373 137.312C66.181 135.808 64.789 134.976 63.349 134.976C61.605 134.976 60.341 135.888 60.341 137.296C60.341 140.592 65.317 138.816 65.317 141.152C65.317 142 64.629 142.608 63.381 142.608C62.117 142.608 61.333 142.032 61.237 140.912L60.085 141.2C60.277 142.688 61.445 143.712 63.317 143.712ZM82.4461 143.504L80.9261 141.472C81.4861 140.56 81.7741 139.408 81.7741 138.16H80.5581C80.5581 138.976 80.4141 139.744 80.1261 140.4L75.0541 133.584V133.488H80.1741V132.304H73.8701V133.936L75.7741 136.512C73.9181 137.168 72.9581 138.528 72.9581 140.112C72.9581 141.952 74.4141 143.712 76.8461 143.712C78.2061 143.712 79.3261 143.248 80.1581 142.448L80.9421 143.504H82.4461ZM76.8461 142.56C75.4221 142.56 74.2221 141.456 74.2221 140.048C74.2221 139.056 74.8781 137.888 76.5261 137.52L79.4381 141.472C78.8141 142.144 77.9501 142.56 76.8461 142.56ZM89.0844 143.504H90.3324V133.488H90.4284L93.6764 143.504H95.4684L98.7164 133.488H98.8124V143.504H100.06V132.304H97.8364L94.6204 142.32H94.5244L91.3084 132.304H89.0844V143.504ZM106.52 143.712C108.328 143.712 109.096 142.528 109.304 142.192H109.4V142.272C109.416 142.992 109.928 143.504 110.616 143.504H111.432V142.384H111.048C110.792 142.384 110.632 142.256 110.632 142V135.184H109.352V136.528H109.256C109.016 136.096 108.152 134.976 106.424 134.976C104.056 134.976 102.456 136.8 102.456 139.36C102.456 141.904 104.136 143.712 106.52 143.712ZM106.584 142.576C104.984 142.576 103.752 141.312 103.752 139.376C103.752 137.472 104.936 136.128 106.568 136.128C108.12 136.128 109.4 137.312 109.4 139.376C109.4 141.12 108.328 142.576 106.584 142.576ZM115.543 133.68C116.087 133.68 116.471 133.28 116.471 132.752C116.471 132.24 116.087 131.84 115.543 131.84C115.015 131.84 114.631 132.24 114.631 132.752C114.631 133.28 115.015 133.68 115.543 133.68ZM114.919 143.504H116.183V135.184H113.351V136.256H114.919V143.504ZM119.346 143.504H120.61V138.544C120.61 137.168 121.634 136.16 122.946 136.16C124.114 136.16 125.09 137.024 125.09 138.352V143.504H126.354V138.272C126.354 136.432 125.186 134.976 123.25 134.976C121.954 134.976 121.058 135.648 120.706 136.4H120.61V135.184H119.346V143.504ZM132.377 143.504H133.561V142.4H132.361C131.481 142.4 131.113 142.016 131.113 141.12V136.256H133.673V135.184H131.113V132.768H129.929V135.184H128.281V136.256H129.849V141.136C129.849 142.816 130.857 143.504 132.377 143.504ZM139.459 143.712C141.379 143.712 142.755 142.608 143.219 141.056L141.987 140.768C141.715 141.92 140.643 142.592 139.475 142.592C137.747 142.592 136.659 141.552 136.643 139.696H143.331V139.232C143.331 136.736 141.891 134.976 139.379 134.976C137.171 134.976 135.347 136.72 135.347 139.376C135.347 141.936 136.931 143.712 139.459 143.712ZM136.675 138.672C136.771 137.104 138.019 136.112 139.379 136.112C140.755 136.112 141.955 136.944 142.035 138.672H136.675ZM145.565 143.504H146.829V138.544C146.829 137.168 147.853 136.16 149.165 136.16C150.333 136.16 151.309 137.024 151.309 138.352V143.504H152.573V138.272C152.573 136.432 151.405 134.976 149.469 134.976C148.173 134.976 147.277 135.648 146.925 136.4H146.829V135.184H145.565V143.504ZM158.723 143.712C160.531 143.712 161.299 142.528 161.507 142.192H161.603V142.272C161.619 142.992 162.131 143.504 162.819 143.504H163.635V142.384H163.251C162.995 142.384 162.835 142.256 162.835 142V135.184H161.555V136.528H161.459C161.219 136.096 160.355 134.976 158.627 134.976C156.259 134.976 154.659 136.8 154.659 139.36C154.659 141.904 156.339 143.712 158.723 143.712ZM158.787 142.576C157.187 142.576 155.955 141.312 155.955 139.376C155.955 137.472 157.139 136.128 158.771 136.128C160.323 136.128 161.603 137.312 161.603 139.376C161.603 141.12 160.531 142.576 158.787 142.576ZM166.034 143.504H167.298V138.544C167.298 137.168 168.322 136.16 169.634 136.16C170.802 136.16 171.778 137.024 171.778 138.352V143.504H173.042V138.272C173.042 136.432 171.874 134.976 169.938 134.976C168.642 134.976 167.746 135.648 167.394 136.4H167.298V135.184H166.034V143.504ZM179.4 143.712C181.208 143.712 182.824 142.624 183.272 140.768L182.024 140.48C181.8 141.728 180.744 142.56 179.448 142.56C177.704 142.56 176.44 141.216 176.44 139.344C176.44 137.536 177.64 136.128 179.416 136.128C180.712 136.128 181.768 136.96 181.992 138.208L183.24 137.92C182.792 136.064 181.192 134.976 179.384 134.976C176.936 134.976 175.128 136.88 175.128 139.344C175.128 141.808 176.888 143.712 179.4 143.712ZM188.99 143.712C190.91 143.712 192.286 142.608 192.75 141.056L191.518 140.768C191.246 141.92 190.174 142.592 189.006 142.592C187.278 142.592 186.19 141.552 186.174 139.696H192.862V139.232C192.862 136.736 191.422 134.976 188.91 134.976C186.702 134.976 184.878 136.72 184.878 139.376C184.878 141.936 186.462 143.712 188.99 143.712ZM186.206 138.672C186.302 137.104 187.55 136.112 188.91 136.112C190.286 136.112 191.486 136.944 191.566 138.672H186.206Z" fill="#0E0E2C"/>
</svg>
