<svg width="152" height="142" viewBox="0 0 152 142" fill="none" xmlns="http://www.w3.org/2000/svg">
<path d="M67.9106 15.5469C67.9106 16.167 68.1764 16.6986 68.5308 17.1415C69.328 18.0274 70.834 18.0274 71.7199 17.1415L76.7693 12.0921L81.8187 17.1415C82.2617 17.5844 82.7932 17.7616 83.4133 17.7616C84.0334 17.7616 84.5649 17.4958 85.0078 17.1415C85.8937 16.2556 85.8937 14.8382 85.0078 13.9524L79.9584 8.90294L85.0078 3.85351C85.8937 2.96765 85.8937 1.55026 85.0078 0.664399C84.122 -0.221466 82.7046 -0.221466 81.8187 0.664399L76.7693 5.71383L71.7199 0.664399C70.834 -0.221466 69.4166 -0.221466 68.5308 0.664399C68.0878 1.10733 67.9106 1.63885 67.9106 2.25896C67.9106 2.87906 68.1764 3.41058 68.5308 3.85351L73.5802 8.90294L68.5308 13.9524C68.1764 14.3953 67.9106 14.9268 67.9106 15.5469Z" fill="#0E0E2C"/>
<path d="M112.824 41.2368L107.775 36.1874L112.824 31.1379C113.71 30.2521 113.71 28.8347 112.824 27.9488C111.938 27.063 110.521 27.063 109.635 27.9488L104.585 32.9983L99.6246 27.9488C98.7388 27.063 97.3214 27.063 96.4355 27.9488C95.9926 28.3918 95.8154 28.9233 95.8154 29.5434C95.8154 30.1635 96.0812 30.695 96.4355 31.1379L101.485 36.1874L96.4355 41.2368C95.9926 41.6797 95.8154 42.2113 95.8154 42.8314C95.8154 43.4515 96.0812 43.983 96.4355 44.4259C97.2328 45.3118 98.7388 45.3118 99.6246 44.4259L104.674 39.3765L109.724 44.4259C110.166 44.8688 110.698 45.046 111.318 45.046C111.938 45.046 112.47 44.7803 112.913 44.4259C113.71 43.4515 113.71 42.0341 112.824 41.2368Z" fill="#0E0E2C"/>
<path d="M84.6536 58.5112C84.1221 58.5112 83.5906 58.777 83.2362 59.2199L73.6689 69.8503L69.8597 66.0411C69.0624 65.2438 67.7336 65.1552 66.8477 66.0411C66.0504 66.8384 66.0504 68.1672 66.8477 69.053L72.1629 74.4568C72.5173 74.8997 73.1374 75.0769 73.6689 75.0769C74.289 75.0769 74.8205 74.8112 75.1748 74.3682L86.3367 62.0547C87.134 61.1688 87.0454 59.84 86.1596 59.0427C85.8052 58.6884 85.2737 58.5112 84.6536 58.5112Z" fill="#0E0E2C"/>
<path d="M62.2413 61.1687C58.2549 58.5997 54.8886 55.0562 52.6739 50.8927C52.1424 49.9182 50.9908 49.5639 50.0163 50.0954C49.0419 50.6269 48.6875 51.7785 49.2191 52.753C51.7881 57.5367 55.5087 61.6117 60.1152 64.535C60.4695 64.7122 60.8239 64.8008 61.1782 64.8008C61.7983 64.8008 62.507 64.4464 62.8614 63.9149C63.4815 62.9404 63.2157 61.7002 62.2413 61.1687Z" fill="#0E0E2C"/>
<path d="M98.6502 18.5588C99.4475 17.7615 99.3589 16.5213 98.5616 15.724L98.3844 15.5468C97.5871 14.7496 96.3469 14.8381 95.5496 15.6354C94.7524 16.4327 94.841 17.6729 95.6382 18.4702L95.8154 18.6474C96.1698 19.0017 96.7013 19.1789 97.2328 19.1789C97.6757 19.1789 98.2072 19.0017 98.6502 18.5588Z" fill="#0E0E2C"/>
<path d="M102.105 25.5571C102.371 25.5571 102.637 25.4685 102.814 25.3799C103.877 24.937 104.32 23.7854 103.966 22.8109C103.966 22.7223 103.877 22.5452 103.788 22.4566C103.257 21.4821 102.017 21.2164 101.042 21.7479C100.156 22.2794 99.802 23.431 100.333 24.4055C100.688 25.1142 101.397 25.5571 102.105 25.5571Z" fill="#0E0E2C"/>
<path d="M92.3606 13.2437C92.8921 12.2692 92.4492 11.029 91.4747 10.5861L91.2976 10.4975C90.3231 9.96598 89.0829 10.3203 88.64 11.2948C88.1084 12.2692 88.4628 13.5094 89.4372 13.9524L89.703 14.1295C89.9688 14.3067 90.3231 14.3953 90.5889 14.3953C91.2976 14.3953 92.0062 13.9524 92.3606 13.2437Z" fill="#0E0E2C"/>
<path d="M96.9671 56.7396L96.7899 56.9167C95.9926 57.714 96.0812 58.9542 96.8785 59.7515C97.2328 60.1058 97.7643 60.283 98.2959 60.283C98.8274 60.283 99.3589 60.1058 99.7132 59.6629L99.8904 59.4857C100.688 58.6885 100.599 57.4482 99.8018 56.651C99.0045 55.8537 97.7643 55.9423 96.9671 56.7396Z" fill="#0E0E2C"/>
<path d="M104.143 49.6524C103.168 49.1209 101.928 49.4752 101.485 50.4497L101.308 50.7154C100.776 51.6899 101.219 52.9301 102.194 53.373C102.46 53.5502 102.814 53.6388 103.08 53.6388C103.788 53.6388 104.497 53.2845 104.851 52.5758L104.94 52.3986C105.472 51.4241 105.117 50.1839 104.143 49.6524Z" fill="#0E0E2C"/>
<path d="M91.0318 61.4346C90.146 61.8775 89.703 63.0291 90.0574 63.915C90.4117 64.7123 91.1204 65.1552 91.9177 65.1552C92.1835 65.1552 92.4492 65.0666 92.6264 64.978C92.715 64.978 92.8921 64.8895 92.9807 64.8009C93.9552 64.2693 94.2209 63.0291 93.6894 62.0547C93.1579 61.1688 91.9177 60.9031 91.0318 61.4346Z" fill="#0E0E2C"/>
<path d="M61.1782 11.1177L61.001 11.2063C60.0266 11.7378 59.7608 12.978 60.2923 13.9525C60.6467 14.5726 61.3554 14.9269 61.9755 14.9269C62.3298 14.9269 62.6842 14.8383 62.9499 14.6611L63.2157 14.484C64.1901 13.9525 64.4559 12.7122 63.9244 11.7378C63.3043 10.8519 62.0641 10.5862 61.1782 11.1177Z" fill="#0E0E2C"/>
<path d="M55.5086 20.0648C56.0401 20.0648 56.5717 19.8876 57.0146 19.4447L57.1918 19.2675C57.9005 18.4702 57.8119 17.23 57.0146 16.5213C56.2173 15.8126 54.8885 15.9012 54.1798 16.6985L54.0912 16.7871C53.3826 17.5844 53.3826 18.8246 54.1798 19.6218C54.5342 19.8876 55.0657 20.0648 55.5086 20.0648Z" fill="#0E0E2C"/>
<path d="M49.8391 26.5316C50.1049 26.7088 50.4592 26.7974 50.8135 26.7974C51.5222 26.7974 52.2309 26.443 52.5853 25.7343L52.7624 25.4686C53.2054 24.4941 52.851 23.2539 51.8766 22.811C50.9021 22.368 49.6619 22.7224 49.219 23.6968L49.0418 23.874C48.5103 24.8485 48.8646 26.0001 49.8391 26.5316Z" fill="#0E0E2C"/>
<path d="M56.6602 38.1362C56.6602 33.1753 52.5853 29.1003 47.6244 29.1003C42.6636 29.1003 38.5 33.0867 38.5 38.1362C38.5 43.097 42.575 47.172 47.5358 47.172C52.4967 47.172 56.6602 43.097 56.6602 38.1362ZM47.6244 43.1856C44.7896 43.1856 42.575 40.8823 42.575 38.1362C42.575 35.3014 44.8782 33.0867 47.6244 33.0867C50.3706 33.0867 52.6738 35.39 52.6738 38.1362C52.6738 40.8823 50.3706 43.1856 47.6244 43.1856Z" fill="#0E0E2C"/>
<path d="M44.988 97.2769H32.004V100.661H36.684V114.077H40.308V100.661H44.988V97.2769ZM57.9904 107.573C57.9904 103.829 55.2544 100.757 51.2704 100.757C47.4304 100.757 44.5504 103.709 44.5504 107.597C44.5504 111.485 47.4544 114.461 51.2704 114.461C54.2944 114.461 56.7664 112.661 57.7024 109.829H54.0304C53.5024 110.765 52.4944 111.341 51.2704 111.341C49.5664 111.341 48.4144 110.357 48.1024 108.581H57.9184C57.9664 108.245 57.9904 107.909 57.9904 107.573ZM51.2704 103.757C52.8544 103.757 53.9824 104.621 54.4864 106.205H48.1984C48.6064 104.669 49.7104 103.757 51.2704 103.757ZM79.2767 110.957C78.0047 110.957 77.2847 110.237 77.2847 108.989V103.949H80.8127V101.117H77.2367V97.7569H76.5647L71.4287 103.181V103.949H73.7807V109.469C73.7807 112.325 75.5327 114.077 78.3887 114.077H80.8847V110.957H79.2767ZM65.6927 106.109C64.3487 105.869 63.2447 105.653 63.2447 104.789C63.2447 104.045 63.8927 103.565 64.9727 103.565C66.1967 103.565 66.9167 104.069 66.9407 105.101H70.2767C70.2527 102.509 68.1887 100.757 65.0687 100.757C61.9487 100.757 59.8607 102.461 59.8607 104.909C59.8607 107.957 62.5007 108.509 64.5647 108.869C65.9327 109.085 67.0607 109.349 67.0607 110.237C67.0607 111.101 66.1727 111.557 65.2127 111.557C63.9647 111.557 63.0767 110.981 63.0527 109.829H59.6447C59.6447 112.589 61.8287 114.461 65.0687 114.461C68.3567 114.461 70.5167 112.733 70.5167 110.093C70.5167 106.925 67.8047 106.493 65.6927 106.109ZM83.5706 99.3889H87.0506V96.1489H83.5706V99.3889ZM83.5706 114.077H87.0746V101.117H83.5706V114.077ZM97.8058 100.829C96.0538 100.829 94.4938 101.573 93.5098 102.725L92.8378 101.117H90.4378V114.077H93.9418V107.285C93.9418 105.197 95.0458 103.901 96.8458 103.901C98.3578 103.901 99.1018 104.837 99.1018 106.805V114.077H102.606V106.229C102.606 102.941 100.758 100.829 97.8058 100.829ZM116.277 101.117L115.701 102.413C114.573 101.381 113.085 100.757 111.405 100.757C107.781 100.757 104.949 103.637 104.949 107.261C104.949 110.909 107.781 113.765 111.405 113.765C112.797 113.765 114.069 113.333 115.101 112.613V113.093C115.101 114.989 113.637 116.141 111.861 116.141C110.565 116.141 109.197 115.541 108.789 114.365H105.309C105.909 117.317 108.405 119.117 111.909 119.117C116.013 119.117 118.533 116.645 118.533 112.589V101.141L116.277 101.117ZM111.813 110.621C109.893 110.621 108.501 109.205 108.501 107.285C108.501 105.341 109.893 103.925 111.813 103.925C113.733 103.925 115.125 105.341 115.125 107.285C115.125 109.205 113.733 110.621 111.813 110.621Z" fill="#0E0E2C"/>
<path d="M8.704 139.373H9.952L9.248 137.613C11.056 136.653 12.224 134.749 12.224 132.477C12.224 129.213 9.776 126.669 6.512 126.669C3.264 126.669 0.8 129.181 0.8 132.477C0.8 135.805 3.248 138.285 6.496 138.285C7.088 138.285 7.648 138.189 8.176 138.045L8.704 139.373ZM6.512 137.069C4.032 137.069 2.144 135.133 2.144 132.477C2.144 129.853 4.032 127.885 6.512 127.885C8.992 127.885 10.88 129.853 10.88 132.477C10.88 134.221 10.064 135.661 8.8 136.445L7.824 133.949H6.56L7.728 136.909C7.344 137.021 6.928 137.069 6.512 137.069ZM21.8228 138.077H23.1828L19.0548 126.877H17.2148L13.0388 138.077H14.3988L15.3748 135.421H20.8468L21.8228 138.077ZM15.8068 134.237L18.0628 128.061H18.1588L20.4148 134.237H15.8068ZM38.3524 138.077L36.8324 136.045C37.3924 135.133 37.6804 133.981 37.6804 132.733H36.4644C36.4644 133.549 36.3204 134.317 36.0324 134.973L30.9604 128.157V128.061H36.0804V126.877H29.7764V128.509L31.6804 131.085C29.8244 131.741 28.8644 133.101 28.8644 134.685C28.8644 136.525 30.3204 138.285 32.7524 138.285C34.1124 138.285 35.2324 137.821 36.0644 137.021L36.8484 138.077H38.3524ZM32.7524 137.133C31.3284 137.133 30.1284 136.029 30.1284 134.621C30.1284 133.629 30.7844 132.461 32.4324 132.093L35.3444 136.045C34.7204 136.717 33.8564 137.133 32.7524 137.133ZM49.8866 138.285C53.1506 138.285 55.6146 135.773 55.6146 132.477C55.6146 129.213 53.1666 126.669 49.9026 126.669C46.6546 126.669 44.1906 129.181 44.1906 132.477C44.1906 135.805 46.6386 138.285 49.8866 138.285ZM49.9026 137.069C47.4226 137.069 45.5346 135.133 45.5346 132.477C45.5346 129.853 47.4226 127.885 49.9026 127.885C52.3826 127.885 54.2706 129.853 54.2706 132.477C54.2706 135.133 52.3826 137.069 49.9026 137.069ZM57.8619 141.757H59.1259V136.733H59.2219C59.4939 137.245 60.3259 138.285 62.0699 138.285C64.4219 138.285 66.0379 136.477 66.0379 133.901C66.0379 131.357 64.3419 129.549 61.9739 129.549C60.1659 129.549 59.3819 130.765 59.1739 131.069H59.0779V129.757H57.8619V141.757ZM61.9259 137.133C60.3579 137.133 59.0779 135.949 59.0779 133.901C59.0779 132.157 60.1659 130.701 61.8939 130.701C63.4939 130.701 64.7419 131.949 64.7419 133.901C64.7419 135.805 63.5579 137.133 61.9259 137.133ZM71.5798 138.077H72.7638V136.973H71.5638C70.6838 136.973 70.3158 136.589 70.3158 135.693V130.829H72.8758V129.757H70.3158V127.341H69.1318V129.757H67.4838V130.829H69.0518V135.709C69.0518 137.389 70.0598 138.077 71.5798 138.077ZM76.902 128.253C77.446 128.253 77.83 127.853 77.83 127.325C77.83 126.813 77.446 126.413 76.902 126.413C76.374 126.413 75.99 126.813 75.99 127.325C75.99 127.853 76.374 128.253 76.902 128.253ZM76.278 138.077H77.542V129.757H74.71V130.829H76.278V138.077ZM80.7056 138.077H81.9696V133.069C81.9696 131.661 82.9616 130.733 84.1296 130.733C85.2976 130.733 86.1936 131.533 86.1936 132.861V138.077H87.4576V133.117C87.4576 131.565 88.4816 130.733 89.6496 130.733C90.8816 130.733 91.6656 131.533 91.6656 133.101V138.077H92.9296V132.685C92.9296 130.861 91.7296 129.549 89.8736 129.549C88.7056 129.549 87.7936 129.997 87.2336 131.069H87.1216C86.6576 130.157 85.7456 129.549 84.4976 129.549C83.2656 129.549 82.4656 130.189 82.0656 130.957H81.9696V129.757H80.7056V138.077ZM97.3551 128.253C97.8991 128.253 98.2831 127.853 98.2831 127.325C98.2831 126.813 97.8991 126.413 97.3551 126.413C96.8271 126.413 96.4431 126.813 96.4431 127.325C96.4431 127.853 96.8271 128.253 97.3551 128.253ZM96.7311 138.077H97.9951V129.757H95.1631V130.829H96.7311V138.077ZM100.679 138.077H107.015V137.005H101.863V136.909L106.935 131.309V129.757H100.823V130.829H105.751V130.925L100.679 136.525V138.077ZM112.833 138.285C114.641 138.285 115.409 137.101 115.617 136.765H115.713V136.845C115.729 137.565 116.241 138.077 116.929 138.077H117.745V136.957H117.361C117.105 136.957 116.945 136.829 116.945 136.573V129.757H115.665V131.101H115.569C115.329 130.669 114.465 129.549 112.737 129.549C110.369 129.549 108.769 131.373 108.769 133.933C108.769 136.477 110.449 138.285 112.833 138.285ZM112.897 137.149C111.297 137.149 110.065 135.885 110.065 133.949C110.065 132.045 111.249 130.701 112.881 130.701C114.433 130.701 115.713 131.885 115.713 133.949C115.713 135.693 114.641 137.149 112.897 137.149ZM123.439 138.077H124.623V136.973H123.423C122.543 136.973 122.175 136.589 122.175 135.693V130.829H124.735V129.757H122.175V127.341H120.991V129.757H119.343V130.829H120.911V135.709C120.911 137.389 121.919 138.077 123.439 138.077ZM128.761 128.253C129.305 128.253 129.689 127.853 129.689 127.325C129.689 126.813 129.305 126.413 128.761 126.413C128.233 126.413 127.849 126.813 127.849 127.325C127.849 127.853 128.233 128.253 128.761 128.253ZM128.137 138.077H129.401V129.757H126.569V130.829H128.137V138.077ZM136.261 138.285C138.757 138.285 140.613 136.413 140.613 133.917C140.613 131.421 138.789 129.549 136.277 129.549C133.797 129.549 131.925 131.405 131.925 133.917C131.925 136.445 133.765 138.285 136.261 138.285ZM136.261 137.133C134.485 137.133 133.221 135.789 133.221 133.917C133.221 132.093 134.469 130.701 136.261 130.701C138.053 130.701 139.317 132.077 139.317 133.917C139.317 135.773 138.053 137.133 136.261 137.133ZM142.846 138.077H144.11V133.117C144.11 131.741 145.134 130.733 146.446 130.733C147.614 130.733 148.59 131.597 148.59 132.925V138.077H149.854V132.845C149.854 131.005 148.686 129.549 146.75 129.549C145.454 129.549 144.558 130.221 144.206 130.973H144.11V129.757H142.846V138.077Z" fill="#0E0E2C"/>
</svg>
