<svg width="214" height="128" viewBox="0 0 214 128" fill="none" xmlns="http://www.w3.org/2000/svg">
<path d="M136.751 43.7831L128.454 35.4862L121.822 28.8534L129.087 21.6112C129.959 20.7406 130.65 19.7066 131.122 18.5685C131.594 17.4304 131.837 16.2104 131.837 14.9784C131.837 13.7464 131.594 12.5265 131.122 11.3884C130.65 10.2502 129.959 9.21629 129.087 8.34561C127.3 6.64059 124.925 5.68935 122.454 5.68935C119.984 5.68935 117.609 6.64059 115.822 8.34561L108.579 15.6112L93.6497 0.681545C93.2106 0.24502 92.6166 0 91.9974 0C91.3782 0 90.7842 0.24502 90.345 0.681545L77.0794 13.9472C76.6578 14.397 76.4305 14.9949 76.4466 15.6112C76.4492 16.2261 76.6933 16.8153 77.1263 17.2519L92.056 32.1815L84.345 39.8925C83.9949 40.2603 83.7659 40.7265 83.6888 41.2284L82.0247 52.83C81.9775 53.1641 82.0029 53.5045 82.0994 53.8279C82.1958 54.1513 82.3609 54.4501 82.5834 54.7038C82.806 54.9575 83.0807 55.1601 83.3888 55.2979C83.6968 55.4356 84.031 55.5052 84.3685 55.5019H84.6966L96.4154 53.8612C96.9147 53.7822 97.3751 53.5437 97.7279 53.1815L105.392 45.5175L120.322 60.4472C120.761 60.8837 121.355 61.1287 121.974 61.1287C122.593 61.1287 123.187 60.8837 123.626 60.4472L136.892 47.1815C137.114 46.9532 137.286 46.6821 137.4 46.3848C137.513 46.0874 137.565 45.7701 137.552 45.4521C137.539 45.1341 137.461 44.8221 137.323 44.5352C137.186 44.2483 136.991 43.9924 136.751 43.7831ZM125.783 11.7675C126.218 12.2028 126.564 12.7198 126.8 13.2889C127.036 13.8579 127.157 14.4679 127.157 15.0839C127.157 15.6999 127.036 16.3099 126.8 16.8789C126.564 17.448 126.218 17.965 125.783 18.4003L119.15 11.7675C120.046 10.9203 121.233 10.4482 122.466 10.4482C123.7 10.4482 124.886 10.9203 125.783 11.7675ZM82.0482 15.6112L92.0091 5.6503L96.9779 10.619L92.0091 15.6112C91.5726 16.0504 91.3276 16.6444 91.3276 17.2636C91.3276 17.8828 91.5726 18.4768 92.0091 18.9159C92.4457 19.3489 93.0349 19.593 93.6497 19.5956C93.9582 19.5974 94.264 19.5383 94.5495 19.4216C94.8351 19.305 95.0948 19.1331 95.3138 18.9159L100.283 13.9472L105.251 18.9159L95.3138 28.8534L82.0482 15.6112ZM94.845 49.2675L87.1107 50.369L88.1654 42.5878L115.822 14.9784L122.454 21.6112L103.704 40.3612L94.845 49.2675ZM121.822 55.4315L108.579 42.2362L118.634 32.1815L123.603 37.1503L118.634 42.2362C118.304 42.5641 118.078 42.9829 117.987 43.4393C117.895 43.8958 117.941 44.3691 118.12 44.7991C118.298 45.229 118.601 45.5961 118.989 45.8534C119.377 46.1108 119.833 46.2468 120.298 46.244C120.916 46.2352 121.506 45.9825 121.939 45.5409L126.931 40.5722L131.9 45.5409L121.822 55.4315Z" fill="#0E0E2C"/>
<path d="M73.256 83.3287H66.92V100.129H73.256C78.2 100.129 81.776 96.6007 81.776 91.7287C81.776 86.8567 78.2 83.3287 73.256 83.3287ZM73.184 96.7687H70.544V86.7127H73.184C76.064 86.7127 78.056 88.7527 78.056 91.7287C78.056 94.6567 76.064 96.7687 73.184 96.7687ZM97.0451 93.6247C97.0451 89.8807 94.3091 86.8087 90.3251 86.8087C86.4851 86.8087 83.6051 89.7607 83.6051 93.6487C83.6051 97.5367 86.5091 100.513 90.3251 100.513C93.3491 100.513 95.8211 98.7127 96.7571 95.8807H93.0851C92.5571 96.8167 91.5491 97.3927 90.3251 97.3927C88.6211 97.3927 87.4691 96.4087 87.1571 94.6327H96.9731C97.0211 94.2967 97.0451 93.9607 97.0451 93.6247ZM90.3251 89.8087C91.9091 89.8087 93.0371 90.6727 93.5411 92.2567H87.2531C87.6611 90.7207 88.7651 89.8087 90.3251 89.8087ZM104.123 100.513C107.411 100.513 109.571 98.7847 109.571 96.1447C109.571 92.9767 106.859 92.5447 104.747 92.1607C103.403 91.9207 102.299 91.7047 102.299 90.8407C102.299 90.0967 102.947 89.6167 104.027 89.6167C105.251 89.6167 105.971 90.1207 105.995 91.1527H109.331C109.307 88.5607 107.243 86.8087 104.123 86.8087C101.003 86.8087 98.9154 88.5127 98.9154 90.9607C98.9154 94.0087 101.555 94.5607 103.619 94.9207C104.987 95.1367 106.115 95.4007 106.115 96.2887C106.115 97.1527 105.227 97.6087 104.267 97.6087C103.019 97.6087 102.131 97.0327 102.107 95.8807H98.6994C98.6994 98.6407 100.883 100.513 104.123 100.513ZM112.149 85.4407H115.629V82.2007H112.149V85.4407ZM112.149 100.129H115.653V87.1687H112.149V100.129ZM129.48 87.1687L128.904 88.4647C127.776 87.4327 126.288 86.8087 124.608 86.8087C120.984 86.8087 118.152 89.6887 118.152 93.3127C118.152 96.9607 120.984 99.8167 124.608 99.8167C126 99.8167 127.272 99.3847 128.304 98.6647V99.1447C128.304 101.041 126.84 102.193 125.064 102.193C123.768 102.193 122.4 101.593 121.992 100.417H118.512C119.112 103.369 121.608 105.169 125.112 105.169C129.216 105.169 131.736 102.697 131.736 98.6407V87.1927L129.48 87.1687ZM125.016 96.6727C123.096 96.6727 121.704 95.2567 121.704 93.3367C121.704 91.3927 123.096 89.9767 125.016 89.9767C126.936 89.9767 128.328 91.3927 128.328 93.3367C128.328 95.2567 126.936 96.6727 125.016 96.6727ZM142.486 86.8807C140.734 86.8807 139.174 87.6247 138.19 88.7767L137.518 87.1687H135.118V100.129H138.622V93.3367C138.622 91.2487 139.726 89.9527 141.526 89.9527C143.038 89.9527 143.782 90.8887 143.782 92.8567V100.129H147.286V92.2807C147.286 88.9927 145.438 86.8807 142.486 86.8807Z" fill="#0E0E2C"/>
<path d="M3.024 124.129H5.072L7.376 114.113H7.472L9.776 124.129H11.824L14.528 112.929H13.136L10.848 122.945H10.752L8.4 112.929H6.448L4.096 122.945H4L1.712 112.929H0.32L3.024 124.129ZM17.9958 114.305C18.5398 114.305 18.9238 113.905 18.9238 113.377C18.9238 112.865 18.5398 112.465 17.9958 112.465C17.4678 112.465 17.0838 112.865 17.0838 113.377C17.0838 113.905 17.4678 114.305 17.9958 114.305ZM17.3718 124.129H18.6358V115.809H15.8038V116.881H17.3718V124.129ZM21.7994 124.129H23.0634V119.681C23.0634 118.097 23.6874 116.865 25.2074 116.865H25.9594V115.601H25.4154C24.1994 115.601 23.3834 116.497 23.1434 117.201H23.0474V115.809H21.7994V124.129ZM31.1933 124.337C33.1133 124.337 34.4893 123.233 34.9533 121.681L33.7213 121.393C33.4493 122.545 32.3773 123.217 31.2093 123.217C29.4813 123.217 28.3932 122.177 28.3773 120.321H35.0653V119.857C35.0653 117.361 33.6253 115.601 31.1133 115.601C28.9053 115.601 27.0813 117.345 27.0813 120.001C27.0813 122.561 28.6653 124.337 31.1933 124.337ZM28.4093 119.297C28.5053 117.729 29.7533 116.737 31.1133 116.737C32.4893 116.737 33.6893 117.569 33.7693 119.297H28.4093ZM37.9074 124.129H39.1714V116.881H41.6034V115.809H39.1714V114.513C39.1714 113.617 39.5394 113.233 40.4194 113.233H41.5394V112.129H40.4354C38.9154 112.129 37.9074 112.817 37.9074 114.497V115.809H36.3394V116.881H37.9074V124.129ZM43.7681 124.129H45.0321V119.681C45.0321 118.097 45.6561 116.865 47.1761 116.865H47.9281V115.601H47.3841C46.1681 115.601 45.3521 116.497 45.1121 117.201H45.0161V115.809H43.7681V124.129ZM53.114 124.337C54.922 124.337 55.69 123.153 55.898 122.817H55.994V122.897C56.01 123.617 56.522 124.129 57.21 124.129H58.026V123.009H57.642C57.386 123.009 57.226 122.881 57.226 122.625V115.809H55.946V117.153H55.85C55.61 116.721 54.746 115.601 53.018 115.601C50.65 115.601 49.05 117.425 49.05 119.985C49.05 122.529 50.73 124.337 53.114 124.337ZM53.178 123.201C51.578 123.201 50.346 121.937 50.346 120.001C50.346 118.097 51.53 116.753 53.162 116.753C54.714 116.753 55.994 117.937 55.994 120.001C55.994 121.745 54.922 123.201 53.178 123.201ZM60.4244 124.129H61.6884V119.121C61.6884 117.713 62.6804 116.785 63.8484 116.785C65.0164 116.785 65.9124 117.585 65.9124 118.913V124.129H67.1764V119.169C67.1764 117.617 68.2004 116.785 69.3684 116.785C70.6004 116.785 71.3844 117.585 71.3844 119.153V124.129H72.6484V118.737C72.6484 116.913 71.4484 115.601 69.5924 115.601C68.4244 115.601 67.5124 116.049 66.9524 117.121H66.8404C66.3764 116.209 65.4644 115.601 64.2164 115.601C62.9844 115.601 62.1844 116.241 61.7844 117.009H61.6884V115.809H60.4244V124.129ZM77.0739 114.305C77.6179 114.305 78.0019 113.905 78.0019 113.377C78.0019 112.865 77.6179 112.465 77.0739 112.465C76.5459 112.465 76.1619 112.865 76.1619 113.377C76.1619 113.905 76.5459 114.305 77.0739 114.305ZM76.4499 124.129H77.7139V115.809H74.8819V116.881H76.4499V124.129ZM80.8775 124.129H82.1415V119.169C82.1415 117.793 83.1655 116.785 84.4775 116.785C85.6455 116.785 86.6215 117.649 86.6215 118.977V124.129H87.8855V118.897C87.8855 117.057 86.7175 115.601 84.7815 115.601C83.4855 115.601 82.5895 116.273 82.2375 117.025H82.1415V115.809H80.8775V124.129ZM92.0199 127.809H95.6199C97.1399 127.809 98.1479 127.121 98.1479 125.441V115.809H96.9319V117.121H96.8359C96.6279 116.817 95.8439 115.601 94.0359 115.601C91.6679 115.601 89.9719 117.409 89.9719 119.953C89.9719 122.529 91.5879 124.337 93.9399 124.337C95.6839 124.337 96.5159 123.297 96.7879 122.785H96.8839V125.313C96.8839 126.209 96.5159 126.641 95.6359 126.641H92.0199V127.809ZM94.0839 123.185C92.4519 123.185 91.2679 121.857 91.2679 119.953C91.2679 118.001 92.5159 116.753 94.1159 116.753C95.8439 116.753 96.9319 118.209 96.9319 119.953C96.9319 122.001 95.6519 123.185 94.0839 123.185ZM114.274 124.129L112.754 122.097C113.314 121.185 113.602 120.033 113.602 118.785H112.386C112.386 119.601 112.242 120.369 111.954 121.025L106.882 114.209V114.113H112.002V112.929H105.698V114.561L107.602 117.137C105.746 117.793 104.786 119.153 104.786 120.737C104.786 122.577 106.242 124.337 108.674 124.337C110.034 124.337 111.154 123.873 111.986 123.073L112.77 124.129H114.274ZM108.674 123.185C107.25 123.185 106.05 122.081 106.05 120.673C106.05 119.681 106.706 118.513 108.354 118.145L111.266 122.097C110.642 122.769 109.778 123.185 108.674 123.185ZM120.913 124.129H122.209V119.697H124.609C126.577 119.697 128.033 118.305 128.033 116.289C128.033 114.257 126.641 112.929 124.609 112.929H120.913V124.129ZM122.209 118.545V114.081H124.497C125.841 114.081 126.705 115.009 126.705 116.289C126.705 117.585 125.841 118.545 124.497 118.545H122.209ZM130.112 124.129H131.376V119.681C131.376 118.097 132 116.865 133.52 116.865H134.272V115.601H133.728C132.512 115.601 131.696 116.497 131.456 117.201H131.36V115.809H130.112V124.129ZM139.73 124.337C142.226 124.337 144.082 122.465 144.082 119.969C144.082 117.473 142.258 115.601 139.746 115.601C137.266 115.601 135.394 117.457 135.394 119.969C135.394 122.497 137.234 124.337 139.73 124.337ZM139.73 123.185C137.954 123.185 136.69 121.841 136.69 119.969C136.69 118.145 137.938 116.753 139.73 116.753C141.522 116.753 142.786 118.129 142.786 119.969C142.786 121.825 141.522 123.185 139.73 123.185ZM149.611 124.129H150.795V123.025H149.595C148.715 123.025 148.347 122.641 148.347 121.745V116.881H150.907V115.809H148.347V113.393H147.163V115.809H145.515V116.881H147.083V121.761C147.083 123.441 148.091 124.129 149.611 124.129ZM156.917 124.337C159.413 124.337 161.269 122.465 161.269 119.969C161.269 117.473 159.445 115.601 156.933 115.601C154.453 115.601 152.581 117.457 152.581 119.969C152.581 122.497 154.421 124.337 156.917 124.337ZM156.917 123.185C155.141 123.185 153.877 121.841 153.877 119.969C153.877 118.145 155.125 116.753 156.917 116.753C158.709 116.753 159.973 118.129 159.973 119.969C159.973 121.825 158.709 123.185 156.917 123.185ZM166.799 124.129H167.983V123.025H166.783C165.903 123.025 165.535 122.641 165.535 121.745V116.881H168.095V115.809H165.535V113.393H164.351V115.809H162.703V116.881H164.271V121.761C164.271 123.441 165.279 124.129 166.799 124.129ZM169.929 127.809H170.809C172.153 127.809 172.921 127.329 173.337 126.241L177.385 115.809H175.961L173.385 122.913H173.289L170.857 115.809H169.449L172.505 124.129H172.841L172.249 125.681C171.993 126.337 171.625 126.657 170.857 126.657H169.929V127.809ZM179.299 127.809H180.563V122.785H180.659C180.931 123.297 181.763 124.337 183.507 124.337C185.859 124.337 187.475 122.529 187.475 119.953C187.475 117.409 185.779 115.601 183.411 115.601C181.603 115.601 180.819 116.817 180.611 117.121H180.515V115.809H179.299V127.809ZM183.363 123.185C181.795 123.185 180.515 122.001 180.515 119.953C180.515 118.209 181.603 116.753 183.331 116.753C184.931 116.753 186.179 118.001 186.179 119.953C186.179 121.857 184.995 123.185 183.363 123.185ZM191.433 114.305C191.977 114.305 192.361 113.905 192.361 113.377C192.361 112.865 191.977 112.465 191.433 112.465C190.905 112.465 190.521 112.865 190.521 113.377C190.521 113.905 190.905 114.305 191.433 114.305ZM190.809 124.129H192.073V115.809H189.241V116.881H190.809V124.129ZM195.237 124.129H196.501V119.169C196.501 117.793 197.525 116.785 198.837 116.785C200.005 116.785 200.981 117.649 200.981 118.977V124.129H202.245V118.897C202.245 117.057 201.077 115.601 199.141 115.601C197.845 115.601 196.949 116.273 196.597 117.025H196.501V115.809H195.237V124.129ZM206.379 127.809H209.979C211.499 127.809 212.507 127.121 212.507 125.441V115.809H211.291V117.121H211.195C210.987 116.817 210.203 115.601 208.395 115.601C206.027 115.601 204.331 117.409 204.331 119.953C204.331 122.529 205.947 124.337 208.299 124.337C210.043 124.337 210.875 123.297 211.147 122.785H211.243V125.313C211.243 126.209 210.875 126.641 209.995 126.641H206.379V127.809ZM208.443 123.185C206.811 123.185 205.627 121.857 205.627 119.953C205.627 118.001 206.875 116.753 208.475 116.753C210.203 116.753 211.291 118.209 211.291 119.953C211.291 122.001 210.011 123.185 208.443 123.185Z" fill="#0E0E2C"/>
</svg>
